<?xml version="1.0" encoding="UTF-8" standalone="no"?><svg xmlns="http://www.w3.org/2000/svg" xmlns:xlink="http://www.w3.org/1999/xlink" contentStyleType="text/css" height="790px" preserveAspectRatio="none" style="width:1248px;height:790px;background:#FFFFFF;" version="1.1" viewBox="0 0 1248 790" width="1248px" zoomAndPan="magnify"><defs/><g><rect fill="#FFFFFF" height="129.5313" style="stroke:#181818;stroke-width:1.0;" width="10" x="440.5" y="155.5625"/><rect fill="#FFFFFF" height="202.7969" style="stroke:#181818;stroke-width:1.0;" width="10" x="440.5" y="357.3594"/><rect fill="#FFFFFF" height="71.2656" style="stroke:#181818;stroke-width:1.0;" width="10" x="780.5" y="184.6953"/><rect fill="#FFFFFF" height="144.5313" style="stroke:#181818;stroke-width:1.0;" width="10" x="780.5" y="386.4922"/><rect fill="#FFFFFF" height="124.5313" style="stroke:#181818;stroke-width:1.0;" width="10" x="780.5" y="560.1563"/><rect fill="none" height="59.2656" style="stroke:#000000;stroke-width:1.5;" width="418.5" x="715" y="443.625"/><rect fill="none" height="117.5313" style="stroke:#000000;stroke-width:1.5;" width="516.5" x="715" y="575.1563"/><line style="stroke:#181818;stroke-width:0.5;stroke-dasharray:5.0,5.0;" x1="60" x2="60" y1="81.2969" y2="709.6875"/><line style="stroke:#181818;stroke-width:0.5;stroke-dasharray:5.0,5.0;" x1="445" x2="445" y1="81.2969" y2="709.6875"/><line style="stroke:#181818;stroke-width:0.5;stroke-dasharray:5.0,5.0;" x1="785" x2="785" y1="81.2969" y2="709.6875"/><line style="stroke:#181818;stroke-width:0.5;stroke-dasharray:5.0,5.0;" x1="1133.5" x2="1133.5" y1="81.2969" y2="709.6875"/><text fill="#000000" font-family="sans-serif" font-size="14" lengthAdjust="spacing" textLength="105" x="5" y="77.9951">Người xác minh</text><ellipse cx="60.5" cy="13.5" fill="#E2E2F0" rx="8" ry="8" style="stroke:#181818;stroke-width:0.5;"/><path d="M60.5,21.5 L60.5,48.5 M47.5,29.5 L73.5,29.5 M60.5,48.5 L47.5,63.5 M60.5,48.5 L73.5,63.5 " fill="none" style="stroke:#181818;stroke-width:0.5;"/><text fill="#000000" font-family="sans-serif" font-size="14" lengthAdjust="spacing" textLength="105" x="5" y="721.6826">Người xác minh</text><ellipse cx="60.5" cy="733.4844" fill="#E2E2F0" rx="8" ry="8" style="stroke:#181818;stroke-width:0.5;"/><path d="M60.5,741.4844 L60.5,768.4844 M47.5,749.4844 L73.5,749.4844 M60.5,768.4844 L47.5,783.4844 M60.5,768.4844 L73.5,783.4844 " fill="none" style="stroke:#181818;stroke-width:0.5;"/><rect fill="#E2E2F0" height="30.2969" rx="2.5" ry="2.5" style="stroke:#181818;stroke-width:0.5;" width="125" x="383" y="50"/><text fill="#000000" font-family="sans-serif" font-size="14" lengthAdjust="spacing" textLength="111" x="390" y="69.9951">Frontend Server</text><rect fill="#E2E2F0" height="30.2969" rx="2.5" ry="2.5" style="stroke:#181818;stroke-width:0.5;" width="125" x="383" y="708.6875"/><text fill="#000000" font-family="sans-serif" font-size="14" lengthAdjust="spacing" textLength="111" x="390" y="728.6826">Frontend Server</text><rect fill="#E2E2F0" height="30.2969" rx="2.5" ry="2.5" style="stroke:#181818;stroke-width:0.5;" width="121" x="725" y="50"/><text fill="#000000" font-family="sans-serif" font-size="14" lengthAdjust="spacing" textLength="107" x="732" y="69.9951">Request Server</text><rect fill="#E2E2F0" height="30.2969" rx="2.5" ry="2.5" style="stroke:#181818;stroke-width:0.5;" width="121" x="725" y="708.6875"/><text fill="#000000" font-family="sans-serif" font-size="14" lengthAdjust="spacing" textLength="107" x="732" y="728.6826">Request Server</text><rect fill="#E2E2F0" height="30.2969" rx="2.5" ry="2.5" style="stroke:#181818;stroke-width:0.5;" width="176" x="1045.5" y="50"/><text fill="#000000" font-family="sans-serif" font-size="14" lengthAdjust="spacing" textLength="162" x="1052.5" y="69.9951">Trusted Record Service</text><rect fill="#E2E2F0" height="30.2969" rx="2.5" ry="2.5" style="stroke:#181818;stroke-width:0.5;" width="176" x="1045.5" y="708.6875"/><text fill="#000000" font-family="sans-serif" font-size="14" lengthAdjust="spacing" textLength="162" x="1052.5" y="728.6826">Trusted Record Service</text><rect fill="#FFFFFF" height="129.5313" style="stroke:#181818;stroke-width:1.0;" width="10" x="440.5" y="155.5625"/><rect fill="#FFFFFF" height="202.7969" style="stroke:#181818;stroke-width:1.0;" width="10" x="440.5" y="357.3594"/><rect fill="#FFFFFF" height="71.2656" style="stroke:#181818;stroke-width:1.0;" width="10" x="780.5" y="184.6953"/><rect fill="#FFFFFF" height="144.5313" style="stroke:#181818;stroke-width:1.0;" width="10" x="780.5" y="386.4922"/><rect fill="#FFFFFF" height="124.5313" style="stroke:#181818;stroke-width:1.0;" width="10" x="780.5" y="560.1563"/><rect fill="#EEEEEE" height="3" style="stroke:#EEEEEE;stroke-width:1.0;" width="1241.5" x="0" y="111.8633"/><line style="stroke:#000000;stroke-width:1.0;" x1="0" x2="1241.5" y1="111.8633" y2="111.8633"/><line style="stroke:#000000;stroke-width:1.0;" x1="0" x2="1241.5" y1="114.8633" y2="114.8633"/><rect fill="#EEEEEE" height="23.1328" style="stroke:#000000;stroke-width:2.0;" width="236" x="502.75" y="101.2969"/><text fill="#000000" font-family="sans-serif" font-size="13" font-weight="bold" lengthAdjust="spacing" textLength="217" x="508.75" y="117.3638">Lấy yêu cầu chỉnh sửa học bạ</text><polygon fill="#181818" points="428.5,151.5625,438.5,155.5625,428.5,159.5625,432.5,155.5625" style="stroke:#181818;stroke-width:1.0;"/><line style="stroke:#181818;stroke-width:1.0;" x1="60.5" x2="434.5" y1="155.5625" y2="155.5625"/><text fill="#000000" font-family="sans-serif" font-size="13" lengthAdjust="spacing" textLength="361" x="67.5" y="150.4966">Yêu cầu lấy các yêu cầu chỉnh sửa học bạ, kèm điều kiện</text><polygon fill="#181818" points="768.5,180.6953,778.5,184.6953,768.5,188.6953,772.5,184.6953" style="stroke:#181818;stroke-width:1.0;"/><line style="stroke:#181818;stroke-width:1.0;" x1="450.5" x2="774.5" y1="184.6953" y2="184.6953"/><text fill="#000000" font-family="sans-serif" font-size="13" lengthAdjust="spacing" textLength="311" x="457.5" y="179.6294">Lấy các yêu cầu chỉnh sửa học bạ, kèm điều kiện</text><line style="stroke:#181818;stroke-width:1.0;" x1="790.5" x2="832.5" y1="213.8281" y2="213.8281"/><line style="stroke:#181818;stroke-width:1.0;" x1="832.5" x2="832.5" y1="213.8281" y2="226.8281"/><line style="stroke:#181818;stroke-width:1.0;" x1="791.5" x2="832.5" y1="226.8281" y2="226.8281"/><polygon fill="#181818" points="801.5,222.8281,791.5,226.8281,801.5,230.8281,797.5,226.8281" style="stroke:#181818;stroke-width:1.0;"/><text fill="#000000" font-family="sans-serif" font-size="13" lengthAdjust="spacing" textLength="304" x="797.5" y="208.7622">Lấy từ cơ sở dữ liệu cực bộ và lọc theo điều kiện</text><polygon fill="#181818" points="461.5,251.9609,451.5,255.9609,461.5,259.9609,457.5,255.9609" style="stroke:#181818;stroke-width:1.0;"/><line style="stroke:#181818;stroke-width:1.0;stroke-dasharray:2.0,2.0;" x1="455.5" x2="784.5" y1="255.9609" y2="255.9609"/><text fill="#000000" font-family="sans-serif" font-size="13" lengthAdjust="spacing" textLength="213" x="467.5" y="250.895">Gửi các yêu cầu chỉnh sửa học bạ</text><polygon fill="#181818" points="71.5,281.0938,61.5,285.0938,71.5,289.0938,67.5,285.0938" style="stroke:#181818;stroke-width:1.0;"/><line style="stroke:#181818;stroke-width:1.0;stroke-dasharray:2.0,2.0;" x1="65.5" x2="444.5" y1="285.0938" y2="285.0938"/><text fill="#000000" font-family="sans-serif" font-size="13" lengthAdjust="spacing" textLength="301" x="77.5" y="280.0278">Thể hiện các yêu cầu trên giao diện người dùng</text><rect fill="#EEEEEE" height="3" style="stroke:#EEEEEE;stroke-width:1.0;" width="1241.5" x="0" y="313.6602"/><line style="stroke:#000000;stroke-width:1.0;" x1="0" x2="1241.5" y1="313.6602" y2="313.6602"/><line style="stroke:#000000;stroke-width:1.0;" x1="0" x2="1241.5" y1="316.6602" y2="316.6602"/><rect fill="#EEEEEE" height="23.1328" style="stroke:#000000;stroke-width:2.0;" width="279" x="481.25" y="303.0938"/><text fill="#000000" font-family="sans-serif" font-size="13" font-weight="bold" lengthAdjust="spacing" textLength="260" x="487.25" y="319.1606">Xác nhận yêu cầu chỉnh sửa học bạ</text><polygon fill="#181818" points="428.5,353.3594,438.5,357.3594,428.5,361.3594,432.5,357.3594" style="stroke:#181818;stroke-width:1.0;"/><line style="stroke:#181818;stroke-width:1.0;" x1="60.5" x2="434.5" y1="357.3594" y2="357.3594"/><text fill="#000000" font-family="sans-serif" font-size="13" lengthAdjust="spacing" textLength="249" x="67.5" y="352.2935">Gửi xác nhận yêu cầu chỉnh sửa học bạ</text><polygon fill="#181818" points="768.5,382.4922,778.5,386.4922,768.5,390.4922,772.5,386.4922" style="stroke:#181818;stroke-width:1.0;"/><line style="stroke:#181818;stroke-width:1.0;" x1="450.5" x2="774.5" y1="386.4922" y2="386.4922"/><text fill="#000000" font-family="sans-serif" font-size="13" lengthAdjust="spacing" textLength="249" x="457.5" y="381.4263">Gửi xác nhận yêu cầu chỉnh sửa học bạ</text><line style="stroke:#181818;stroke-width:1.0;" x1="790.5" x2="832.5" y1="415.625" y2="415.625"/><line style="stroke:#181818;stroke-width:1.0;" x1="832.5" x2="832.5" y1="415.625" y2="428.625"/><line style="stroke:#181818;stroke-width:1.0;" x1="791.5" x2="832.5" y1="428.625" y2="428.625"/><polygon fill="#181818" points="801.5,424.625,791.5,428.625,801.5,432.625,797.5,428.625" style="stroke:#181818;stroke-width:1.0;"/><text fill="#000000" font-family="sans-serif" font-size="13" lengthAdjust="spacing" textLength="285" x="797.5" y="410.5591">Xóa yêu cầu đang chờ từ cơ sở dữ liệu nội bộ</text><path d="M715,443.625 L779,443.625 L779,450.7578 L769,460.7578 L715,460.7578 L715,443.625 " fill="#EEEEEE" style="stroke:#000000;stroke-width:1.5;"/><rect fill="none" height="59.2656" style="stroke:#000000;stroke-width:1.5;" width="418.5" x="715" y="443.625"/><text fill="#000000" font-family="sans-serif" font-size="13" font-weight="bold" lengthAdjust="spacing" textLength="19" x="730" y="456.6919">alt</text><text fill="#000000" font-family="sans-serif" font-size="11" font-weight="bold" lengthAdjust="spacing" textLength="167" x="794" y="455.8354">[Yêu cầu được chấp nhận]</text><line style="stroke:#181818;stroke-width:1.0;" x1="790.5" x2="832.5" y1="481.8906" y2="481.8906"/><line style="stroke:#181818;stroke-width:1.0;" x1="832.5" x2="832.5" y1="481.8906" y2="494.8906"/><line style="stroke:#181818;stroke-width:1.0;" x1="791.5" x2="832.5" y1="494.8906" y2="494.8906"/><polygon fill="#181818" points="801.5,490.8906,791.5,494.8906,801.5,498.8906,797.5,494.8906" style="stroke:#181818;stroke-width:1.0;"/><text fill="#000000" font-family="sans-serif" font-size="13" lengthAdjust="spacing" textLength="324" x="797.5" y="476.8247">Lưu yêu cầu được xác thực vào cơ sở dữ liệu nội bộ</text><polygon fill="#181818" points="461.5,527.0234,451.5,531.0234,461.5,535.0234,457.5,531.0234" style="stroke:#181818;stroke-width:1.0;"/><line style="stroke:#181818;stroke-width:1.0;stroke-dasharray:2.0,2.0;" x1="455.5" x2="784.5" y1="531.0234" y2="531.0234"/><text fill="#000000" font-family="sans-serif" font-size="13" lengthAdjust="spacing" textLength="166" x="467.5" y="525.9575">Gửi thông báo thành công</text><polygon fill="#181818" points="71.5,556.1563,61.5,560.1563,71.5,564.1563,67.5,560.1563" style="stroke:#181818;stroke-width:1.0;"/><line style="stroke:#181818;stroke-width:1.0;stroke-dasharray:2.0,2.0;" x1="65.5" x2="444.5" y1="560.1563" y2="560.1563"/><text fill="#000000" font-family="sans-serif" font-size="13" lengthAdjust="spacing" textLength="174" x="77.5" y="555.0903">Hiện thông báo thành công</text><path d="M715,575.1563 L792,575.1563 L792,582.2891 L782,592.2891 L715,592.2891 L715,575.1563 " fill="#EEEEEE" style="stroke:#000000;stroke-width:1.5;"/><rect fill="none" height="117.5313" style="stroke:#000000;stroke-width:1.5;" width="516.5" x="715" y="575.1563"/><text fill="#000000" font-family="sans-serif" font-size="13" font-weight="bold" lengthAdjust="spacing" textLength="32" x="730" y="588.2231">loop</text><text fill="#000000" font-family="sans-serif" font-size="11" font-weight="bold" lengthAdjust="spacing" textLength="247" x="807" y="587.3667">[khi tới lúc cần gửi lên Record Service]</text><line style="stroke:#181818;stroke-width:1.0;" x1="790.5" x2="832.5" y1="613.4219" y2="613.4219"/><line style="stroke:#181818;stroke-width:1.0;" x1="832.5" x2="832.5" y1="613.4219" y2="626.4219"/><line style="stroke:#181818;stroke-width:1.0;" x1="791.5" x2="832.5" y1="626.4219" y2="626.4219"/><polygon fill="#181818" points="801.5,622.4219,791.5,626.4219,801.5,630.4219,797.5,626.4219" style="stroke:#181818;stroke-width:1.0;"/><text fill="#000000" font-family="sans-serif" font-size="13" lengthAdjust="spacing" textLength="232" x="797.5" y="608.356">Tạo học bạ từ các yêu cầu chỉnh sửa</text><polygon fill="#181818" points="1121.5,651.5547,1131.5,655.5547,1121.5,659.5547,1125.5,655.5547" style="stroke:#181818;stroke-width:1.0;"/><line style="stroke:#181818;stroke-width:1.0;" x1="790.5" x2="1127.5" y1="655.5547" y2="655.5547"/><text fill="#000000" font-family="sans-serif" font-size="13" lengthAdjust="spacing" textLength="166" x="797.5" y="650.4888">Gửi học bạ kèm giấy phép</text><polygon fill="#181818" points="796.5,680.6875,786.5,684.6875,796.5,688.6875,792.5,684.6875" style="stroke:#181818;stroke-width:1.0;"/><line style="stroke:#181818;stroke-width:1.0;stroke-dasharray:2.0,2.0;" x1="790.5" x2="1132.5" y1="684.6875" y2="684.6875"/><text fill="#000000" font-family="sans-serif" font-size="13" lengthAdjust="spacing" textLength="143" x="802.5" y="679.6216">Thông báo thành công</text><!--MD5=[6c132d63a65102af17490bfa208397e5]
@startuml
actor "Người xác minh" as Validator
participant "Frontend Server" as Frontend
participant "Request Server" as Backend
participant "Trusted Record Service" as Record

== Lấy yêu cầu chỉnh sửa học bạ ==
Validator -> Frontend: Yêu cầu lấy các yêu cầu chỉnh sửa học bạ, kèm điều kiện
activate Frontend
Frontend -> Backend: Lấy các yêu cầu chỉnh sửa học bạ, kèm điều kiện
activate Backend
Backend -> Backend: Lấy từ cơ sở dữ liệu cực bộ và lọc theo điều kiện
Backend - -> Frontend: Gửi các yêu cầu chỉnh sửa học bạ
deactivate Backend
Frontend - -> Validator: Thể hiện các yêu cầu trên giao diện người dùng
deactivate Frontend
== Xác nhận yêu cầu chỉnh sửa học bạ ==
Validator -> Frontend: Gửi xác nhận yêu cầu chỉnh sửa học bạ
activate Frontend
Frontend -> Backend: Gửi xác nhận yêu cầu chỉnh sửa học bạ
activate Backend
Backend -> Backend: Xóa yêu cầu đang chờ từ cơ sở dữ liệu nội bộ
alt Yêu cầu được chấp nhận
  Backend -> Backend: Lưu yêu cầu được xác thực vào cơ sở dữ liệu nội bộ
end
Backend - -> Frontend: Gửi thông báo thành công
deactivate Backend
Frontend - -> Validator: Hiện thông báo thành công
deactivate Frontend

loop khi tới lúc cần gửi lên Record Service
activate Backend
Backend -> Backend: Tạo học bạ từ các yêu cầu chỉnh sửa
Backend -> Record: Gửi học bạ kèm giấy phép
Record - -> Backend: Thông báo thành công
deactivate Backend
end
@enduml

PlantUML version 1.2022.7(Mon Aug 22 17:01:30 UTC 2022)
(GPL source distribution)
Java Runtime: OpenJDK Runtime Environment
JVM: OpenJDK 64-Bit Server VM
Default Encoding: UTF-8
Language: en
Country: null
--></g></svg>