<?xml version="1.0" encoding="UTF-8" standalone="no"?><svg xmlns="http://www.w3.org/2000/svg" xmlns:xlink="http://www.w3.org/1999/xlink" contentStyleType="text/css" height="748px" preserveAspectRatio="none" style="width:883px;height:748px;background:#FFFFFF;" version="1.1" viewBox="0 0 883 748" width="883px" zoomAndPan="magnify"><defs/><g><rect fill="#FFFFFF" height="187.7969" style="stroke:#181818;stroke-width:1.0;" width="10" x="317.5" y="155.5625"/><rect fill="#FFFFFF" height="241.7344" style="stroke:#181818;stroke-width:1.0;" width="10" x="317.5" y="415.625"/><rect fill="#FFFFFF" height="129.5313" style="stroke:#181818;stroke-width:1.0;" width="10" x="508.5" y="184.6953"/><rect fill="#FFFFFF" height="212.6016" style="stroke:#181818;stroke-width:1.0;" width="10" x="508.5" y="444.7578"/><rect fill="#FFFFFF" height="29.1328" style="stroke:#181818;stroke-width:1.0;" width="10" x="778.5" y="213.8281"/><rect fill="none" height="190.6016" style="stroke:#000000;stroke-width:1.5;" width="773.5" x="10" y="459.7578"/><line style="stroke:#181818;stroke-width:0.5;stroke-dasharray:5.0,5.0;" x1="72" x2="72" y1="81.2969" y2="667.3594"/><line style="stroke:#181818;stroke-width:0.5;stroke-dasharray:5.0,5.0;" x1="322" x2="322" y1="81.2969" y2="667.3594"/><line style="stroke:#181818;stroke-width:0.5;stroke-dasharray:5.0,5.0;" x1="513" x2="513" y1="81.2969" y2="667.3594"/><line style="stroke:#181818;stroke-width:0.5;stroke-dasharray:5.0,5.0;" x1="783.5" x2="783.5" y1="81.2969" y2="667.3594"/><text fill="#000000" font-family="sans-serif" font-size="14" lengthAdjust="spacing" textLength="99" x="20" y="77.9951">Người yêu cầu</text><ellipse cx="72.5" cy="13.5" fill="#E2E2F0" rx="8" ry="8" style="stroke:#181818;stroke-width:0.5;"/><path d="M72.5,21.5 L72.5,48.5 M59.5,29.5 L85.5,29.5 M72.5,48.5 L59.5,63.5 M72.5,48.5 L85.5,63.5 " fill="none" style="stroke:#181818;stroke-width:0.5;"/><text fill="#000000" font-family="sans-serif" font-size="14" lengthAdjust="spacing" textLength="99" x="20" y="679.3545">Người yêu cầu</text><ellipse cx="72.5" cy="691.1563" fill="#E2E2F0" rx="8" ry="8" style="stroke:#181818;stroke-width:0.5;"/><path d="M72.5,699.1563 L72.5,726.1563 M59.5,707.1563 L85.5,707.1563 M72.5,726.1563 L59.5,741.1563 M72.5,726.1563 L85.5,741.1563 " fill="none" style="stroke:#181818;stroke-width:0.5;"/><rect fill="#E2E2F0" height="30.2969" rx="2.5" ry="2.5" style="stroke:#181818;stroke-width:0.5;" width="125" x="260" y="50"/><text fill="#000000" font-family="sans-serif" font-size="14" lengthAdjust="spacing" textLength="111" x="267" y="69.9951">Frontend Server</text><rect fill="#E2E2F0" height="30.2969" rx="2.5" ry="2.5" style="stroke:#181818;stroke-width:0.5;" width="125" x="260" y="666.3594"/><text fill="#000000" font-family="sans-serif" font-size="14" lengthAdjust="spacing" textLength="111" x="267" y="686.3545">Frontend Server</text><rect fill="#E2E2F0" height="30.2969" rx="2.5" ry="2.5" style="stroke:#181818;stroke-width:0.5;" width="121" x="453" y="50"/><text fill="#000000" font-family="sans-serif" font-size="14" lengthAdjust="spacing" textLength="107" x="460" y="69.9951">Request Server</text><rect fill="#E2E2F0" height="30.2969" rx="2.5" ry="2.5" style="stroke:#181818;stroke-width:0.5;" width="121" x="453" y="666.3594"/><text fill="#000000" font-family="sans-serif" font-size="14" lengthAdjust="spacing" textLength="107" x="460" y="686.3545">Request Server</text><rect fill="#E2E2F0" height="30.2969" rx="2.5" ry="2.5" style="stroke:#181818;stroke-width:0.5;" width="176" x="695.5" y="50"/><text fill="#000000" font-family="sans-serif" font-size="14" lengthAdjust="spacing" textLength="162" x="702.5" y="69.9951">Trusted Record Service</text><rect fill="#E2E2F0" height="30.2969" rx="2.5" ry="2.5" style="stroke:#181818;stroke-width:0.5;" width="176" x="695.5" y="666.3594"/><text fill="#000000" font-family="sans-serif" font-size="14" lengthAdjust="spacing" textLength="162" x="702.5" y="686.3545">Trusted Record Service</text><rect fill="#FFFFFF" height="187.7969" style="stroke:#181818;stroke-width:1.0;" width="10" x="317.5" y="155.5625"/><rect fill="#FFFFFF" height="241.7344" style="stroke:#181818;stroke-width:1.0;" width="10" x="317.5" y="415.625"/><rect fill="#FFFFFF" height="129.5313" style="stroke:#181818;stroke-width:1.0;" width="10" x="508.5" y="184.6953"/><rect fill="#FFFFFF" height="212.6016" style="stroke:#181818;stroke-width:1.0;" width="10" x="508.5" y="444.7578"/><rect fill="#FFFFFF" height="29.1328" style="stroke:#181818;stroke-width:1.0;" width="10" x="778.5" y="213.8281"/><rect fill="#EEEEEE" height="3" style="stroke:#EEEEEE;stroke-width:1.0;" width="876.5" x="0" y="111.8633"/><line style="stroke:#000000;stroke-width:1.0;" x1="0" x2="876.5" y1="111.8633" y2="111.8633"/><line style="stroke:#000000;stroke-width:1.0;" x1="0" x2="876.5" y1="114.8633" y2="114.8633"/><rect fill="#EEEEEE" height="23.1328" style="stroke:#000000;stroke-width:2.0;" width="171" x="352.75" y="101.2969"/><text fill="#000000" font-family="sans-serif" font-size="13" font-weight="bold" lengthAdjust="spacing" textLength="152" x="358.75" y="117.3638">Lấy thông tin học bạ</text><polygon fill="#181818" points="305.5,151.5625,315.5,155.5625,305.5,159.5625,309.5,155.5625" style="stroke:#181818;stroke-width:1.0;"/><line style="stroke:#181818;stroke-width:1.0;" x1="72.5" x2="311.5" y1="155.5625" y2="155.5625"/><text fill="#000000" font-family="sans-serif" font-size="13" lengthAdjust="spacing" textLength="216" x="79.5" y="150.4966">Yêu cầu lấy học bạ, kèm điều kiện</text><polygon fill="#181818" points="496.5,180.6953,506.5,184.6953,496.5,188.6953,500.5,184.6953" style="stroke:#181818;stroke-width:1.0;"/><line style="stroke:#181818;stroke-width:1.0;" x1="327.5" x2="502.5" y1="184.6953" y2="184.6953"/><text fill="#000000" font-family="sans-serif" font-size="13" lengthAdjust="spacing" textLength="119" x="334.5" y="179.6294">Yêu cầu lấy học bạ</text><polygon fill="#181818" points="766.5,209.8281,776.5,213.8281,766.5,217.8281,770.5,213.8281" style="stroke:#181818;stroke-width:1.0;"/><line style="stroke:#181818;stroke-width:1.0;" x1="518.5" x2="772.5" y1="213.8281" y2="213.8281"/><text fill="#000000" font-family="sans-serif" font-size="13" lengthAdjust="spacing" textLength="119" x="525.5" y="208.7622">Yêu cầu lấy học bạ</text><polygon fill="#181818" points="529.5,238.9609,519.5,242.9609,529.5,246.9609,525.5,242.9609" style="stroke:#181818;stroke-width:1.0;"/><line style="stroke:#181818;stroke-width:1.0;stroke-dasharray:2.0,2.0;" x1="523.5" x2="782.5" y1="242.9609" y2="242.9609"/><text fill="#000000" font-family="sans-serif" font-size="13" lengthAdjust="spacing" textLength="137" x="535.5" y="237.895">Gửi học bạ tương ứng</text><line style="stroke:#181818;stroke-width:1.0;" x1="518.5" x2="560.5" y1="272.0938" y2="272.0938"/><line style="stroke:#181818;stroke-width:1.0;" x1="560.5" x2="560.5" y1="272.0938" y2="285.0938"/><line style="stroke:#181818;stroke-width:1.0;" x1="519.5" x2="560.5" y1="285.0938" y2="285.0938"/><polygon fill="#181818" points="529.5,281.0938,519.5,285.0938,529.5,289.0938,525.5,285.0938" style="stroke:#181818;stroke-width:1.0;"/><text fill="#000000" font-family="sans-serif" font-size="13" lengthAdjust="spacing" textLength="163" x="525.5" y="267.0278">Lọc học bạ theo điều kiện</text><polygon fill="#181818" points="338.5,310.2266,328.5,314.2266,338.5,318.2266,334.5,314.2266" style="stroke:#181818;stroke-width:1.0;"/><line style="stroke:#181818;stroke-width:1.0;stroke-dasharray:2.0,2.0;" x1="332.5" x2="512.5" y1="314.2266" y2="314.2266"/><text fill="#000000" font-family="sans-serif" font-size="13" lengthAdjust="spacing" textLength="137" x="344.5" y="309.1606">Gửi học bạ tương ứng</text><polygon fill="#181818" points="83.5,339.3594,73.5,343.3594,83.5,347.3594,79.5,343.3594" style="stroke:#181818;stroke-width:1.0;"/><line style="stroke:#181818;stroke-width:1.0;stroke-dasharray:2.0,2.0;" x1="77.5" x2="321.5" y1="343.3594" y2="343.3594"/><text fill="#000000" font-family="sans-serif" font-size="13" lengthAdjust="spacing" textLength="221" x="89.5" y="338.2935">Thể hiện trên giao diện người dùng</text><rect fill="#EEEEEE" height="3" style="stroke:#EEEEEE;stroke-width:1.0;" width="876.5" x="0" y="371.9258"/><line style="stroke:#000000;stroke-width:1.0;" x1="0" x2="876.5" y1="371.9258" y2="371.9258"/><line style="stroke:#000000;stroke-width:1.0;" x1="0" x2="876.5" y1="374.9258" y2="374.9258"/><rect fill="#EEEEEE" height="23.1328" style="stroke:#000000;stroke-width:2.0;" width="208" x="334.25" y="361.3594"/><text fill="#000000" font-family="sans-serif" font-size="13" font-weight="bold" lengthAdjust="spacing" textLength="189" x="340.25" y="377.4263">Yêu cầu chỉnh sửa học bạ</text><polygon fill="#181818" points="305.5,411.625,315.5,415.625,305.5,419.625,309.5,415.625" style="stroke:#181818;stroke-width:1.0;"/><line style="stroke:#181818;stroke-width:1.0;" x1="72.5" x2="311.5" y1="415.625" y2="415.625"/><text fill="#000000" font-family="sans-serif" font-size="13" lengthAdjust="spacing" textLength="162" x="79.5" y="410.5591">Yêu cầu chỉnh sửa học bạ</text><polygon fill="#181818" points="496.5,440.7578,506.5,444.7578,496.5,448.7578,500.5,444.7578" style="stroke:#181818;stroke-width:1.0;"/><line style="stroke:#181818;stroke-width:1.0;" x1="327.5" x2="502.5" y1="444.7578" y2="444.7578"/><text fill="#000000" font-family="sans-serif" font-size="13" lengthAdjust="spacing" textLength="162" x="334.5" y="439.6919">Yêu cầu chỉnh sửa học bạ</text><path d="M10,459.7578 L74,459.7578 L74,466.8906 L64,476.8906 L10,476.8906 L10,459.7578 " fill="#EEEEEE" style="stroke:#000000;stroke-width:1.5;"/><rect fill="none" height="190.6016" style="stroke:#000000;stroke-width:1.5;" width="773.5" x="10" y="459.7578"/><text fill="#000000" font-family="sans-serif" font-size="13" font-weight="bold" lengthAdjust="spacing" textLength="19" x="25" y="472.8247">alt</text><text fill="#000000" font-family="sans-serif" font-size="11" font-weight="bold" lengthAdjust="spacing" textLength="105" x="89" y="471.9683">[Yêu cầu hợp lệ]</text><line style="stroke:#181818;stroke-width:1.0;" x1="518.5" x2="560.5" y1="498.0234" y2="498.0234"/><line style="stroke:#181818;stroke-width:1.0;" x1="560.5" x2="560.5" y1="498.0234" y2="511.0234"/><line style="stroke:#181818;stroke-width:1.0;" x1="519.5" x2="560.5" y1="511.0234" y2="511.0234"/><polygon fill="#181818" points="529.5,507.0234,519.5,511.0234,529.5,515.0234,525.5,511.0234" style="stroke:#181818;stroke-width:1.0;"/><text fill="#000000" font-family="sans-serif" font-size="13" lengthAdjust="spacing" textLength="246" x="525.5" y="492.9575">Lưu trữ như một yêu cầu cần xác minh</text><polygon fill="#181818" points="338.5,536.1563,328.5,540.1563,338.5,544.1563,334.5,540.1563" style="stroke:#181818;stroke-width:1.0;"/><line style="stroke:#181818;stroke-width:1.0;stroke-dasharray:2.0,2.0;" x1="332.5" x2="507.5" y1="540.1563" y2="540.1563"/><text fill="#000000" font-family="sans-serif" font-size="13" lengthAdjust="spacing" textLength="143" x="344.5" y="535.0903">Thông báo thành công</text><polygon fill="#181818" points="83.5,565.2891,73.5,569.2891,83.5,573.2891,79.5,569.2891" style="stroke:#181818;stroke-width:1.0;"/><line style="stroke:#181818;stroke-width:1.0;stroke-dasharray:2.0,2.0;" x1="77.5" x2="316.5" y1="569.2891" y2="569.2891"/><text fill="#000000" font-family="sans-serif" font-size="13" lengthAdjust="spacing" textLength="143" x="89.5" y="564.2231">Thông báo thành công</text><line style="stroke:#000000;stroke-width:1.0;stroke-dasharray:2.0,2.0;" x1="10" x2="783.5" y1="578.2891" y2="578.2891"/><text fill="#000000" font-family="sans-serif" font-size="11" font-weight="bold" lengthAdjust="spacing" textLength="148" x="15" y="588.4995">[Yêu cầu không hợp lệ]</text><polygon fill="#181818" points="338.5,609.2266,328.5,613.2266,338.5,617.2266,334.5,613.2266" style="stroke:#181818;stroke-width:1.0;"/><line style="stroke:#181818;stroke-width:1.0;stroke-dasharray:2.0,2.0;" x1="332.5" x2="507.5" y1="613.2266" y2="613.2266"/><text fill="#000000" font-family="sans-serif" font-size="13" lengthAdjust="spacing" textLength="153" x="344.5" y="608.1606">Thông báo không hợp lệ</text><polygon fill="#181818" points="83.5,638.3594,73.5,642.3594,83.5,646.3594,79.5,642.3594" style="stroke:#181818;stroke-width:1.0;"/><line style="stroke:#181818;stroke-width:1.0;stroke-dasharray:2.0,2.0;" x1="77.5" x2="316.5" y1="642.3594" y2="642.3594"/><text fill="#000000" font-family="sans-serif" font-size="13" lengthAdjust="spacing" textLength="153" x="89.5" y="637.2935">Thông báo không hợp lệ</text><!--MD5=[3efcc6508252598e03152d0c9c52af09]
@startuml
actor "Người yêu cầu" as Requester
participant "Frontend Server" as Frontend
participant "Request Server" as Backend
participant "Trusted Record Service" as Record

== Lấy thông tin học bạ ==

Requester -> Frontend: Yêu cầu lấy học bạ, kèm điều kiện
activate Frontend
Frontend -> Backend: Yêu cầu lấy học bạ
activate Backend
Backend -> Record: Yêu cầu lấy học bạ
activate Record
Record - -> Backend: Gửi học bạ tương ứng
deactivate Record
Backend -> Backend: Lọc học bạ theo điều kiện
Backend - -> Frontend: Gửi học bạ tương ứng
deactivate Backend
Frontend - -> Requester: Thể hiện trên giao diện người dùng
deactivate Frontend

== Yêu cầu chỉnh sửa học bạ ==
Requester -> Frontend: Yêu cầu chỉnh sửa học bạ
activate Frontend
Frontend -> Backend: Yêu cầu chỉnh sửa học bạ
activate Backend
alt Yêu cầu hợp lệ
  Backend -> Backend: Lưu trữ như một yêu cầu cần xác minh
  Backend - -> Frontend: Thông báo thành công
  Frontend - -> Requester: Thông báo thành công
else Yêu cầu không hợp lệ
  Backend - -> Frontend: Thông báo không hợp lệ
  Frontend - -> Requester: Thông báo không hợp lệ
end
deactivate Backend
deactivate Frontend
@enduml

PlantUML version 1.2022.7(Mon Aug 22 17:01:30 UTC 2022)
(GPL source distribution)
Java Runtime: OpenJDK Runtime Environment
JVM: OpenJDK 64-Bit Server VM
Default Encoding: UTF-8
Language: en
Country: null
--></g></svg>