<?xml version="1.0" encoding="UTF-8" standalone="no"?><svg xmlns="http://www.w3.org/2000/svg" xmlns:xlink="http://www.w3.org/1999/xlink" contentStyleType="text/css" height="716px" preserveAspectRatio="none" style="width:864px;height:716px;background:#FFFFFF;" version="1.1" viewBox="0 0 864 716" width="864px" zoomAndPan="magnify"><defs/><g><!--MD5=[d862f9d3adee4679f2e3713542736980]
cluster Department 1--><g id="cluster_Department 1"><path d="M115.5,612 L224.5,612 A3.75,3.75 0 0 1 227,614.5 L234,634.2969 L275.5,634.2969 A2.5,2.5 0 0 1 278,636.7969 L278,706.5 A2.5,2.5 0 0 1 275.5,709 L115.5,709 A2.5,2.5 0 0 1 113,706.5 L113,614.5 A2.5,2.5 0 0 1 115.5,612 " fill="none" style="stroke:#000000;stroke-width:1.5;"/><line style="stroke:#000000;stroke-width:1.5;" x1="113" x2="234" y1="634.2969" y2="634.2969"/><text fill="#000000" font-family="sans-serif" font-size="14" font-weight="bold" lengthAdjust="spacing" textLength="108" x="117" y="626.9951">Department 1</text></g><!--MD5=[e0cc7a4c550fb03bbb9c6b5ace92f85a]
cluster Department 2--><g id="cluster_Department 2"><path d="M352.5,612 L461.5,612 A3.75,3.75 0 0 1 464,614.5 L471,634.2969 L512.5,634.2969 A2.5,2.5 0 0 1 515,636.7969 L515,706.5 A2.5,2.5 0 0 1 512.5,709 L352.5,709 A2.5,2.5 0 0 1 350,706.5 L350,614.5 A2.5,2.5 0 0 1 352.5,612 " fill="none" style="stroke:#000000;stroke-width:1.5;"/><line style="stroke:#000000;stroke-width:1.5;" x1="350" x2="471" y1="634.2969" y2="634.2969"/><text fill="#000000" font-family="sans-serif" font-size="14" font-weight="bold" lengthAdjust="spacing" textLength="108" x="354" y="626.9951">Department 2</text></g><!--MD5=[accb0519d3e559168f8c3ef003b53091]
cluster Department 3--><g id="cluster_Department 3"><path d="M589.5,612 L698.5,612 A3.75,3.75 0 0 1 701,614.5 L708,634.2969 L749.5,634.2969 A2.5,2.5 0 0 1 752,636.7969 L752,706.5 A2.5,2.5 0 0 1 749.5,709 L589.5,709 A2.5,2.5 0 0 1 587,706.5 L587,614.5 A2.5,2.5 0 0 1 589.5,612 " fill="none" style="stroke:#000000;stroke-width:1.5;"/><line style="stroke:#000000;stroke-width:1.5;" x1="587" x2="708" y1="634.2969" y2="634.2969"/><text fill="#000000" font-family="sans-serif" font-size="14" font-weight="bold" lengthAdjust="spacing" textLength="108" x="591" y="626.9951">Department 3</text></g><!--MD5=[a26c3a9eeb211efd594f1c316062a725]
cluster School 1.1--><g id="cluster_School 1.1"><path d="M93.5,410 L177.5,410 A3.75,3.75 0 0 1 180,412.5 L187,432.2969 L297.5,432.2969 A2.5,2.5 0 0 1 300,434.7969 L300,585.5 A2.5,2.5 0 0 1 297.5,588 L93.5,588 A2.5,2.5 0 0 1 91,585.5 L91,412.5 A2.5,2.5 0 0 1 93.5,410 " fill="none" style="stroke:#000000;stroke-width:1.5;"/><line style="stroke:#000000;stroke-width:1.5;" x1="91" x2="187" y1="432.2969" y2="432.2969"/><text fill="#000000" font-family="sans-serif" font-size="14" font-weight="bold" lengthAdjust="spacing" textLength="83" x="95" y="424.9951">School 1.1</text></g><!--MD5=[d50e92e8d46d181216c53438c1067d15]
cluster School 1.2--><g id="cluster_School 1.2"><path d="M93.5,208 L177.5,208 A3.75,3.75 0 0 1 180,210.5 L187,230.2969 L297.5,230.2969 A2.5,2.5 0 0 1 300,232.7969 L300,383.5 A2.5,2.5 0 0 1 297.5,386 L93.5,386 A2.5,2.5 0 0 1 91,383.5 L91,210.5 A2.5,2.5 0 0 1 93.5,208 " fill="none" style="stroke:#000000;stroke-width:1.5;"/><line style="stroke:#000000;stroke-width:1.5;" x1="91" x2="187" y1="230.2969" y2="230.2969"/><text fill="#000000" font-family="sans-serif" font-size="14" font-weight="bold" lengthAdjust="spacing" textLength="83" x="95" y="222.9951">School 1.2</text></g><!--MD5=[acedc6ef49123c2511f908af48777d84]
cluster School 1.3--><g id="cluster_School 1.3"><path d="M93.5,6 L177.5,6 A3.75,3.75 0 0 1 180,8.5 L187,28.2969 L297.5,28.2969 A2.5,2.5 0 0 1 300,30.7969 L300,181.5 A2.5,2.5 0 0 1 297.5,184 L93.5,184 A2.5,2.5 0 0 1 91,181.5 L91,8.5 A2.5,2.5 0 0 1 93.5,6 " fill="none" style="stroke:#000000;stroke-width:1.5;"/><line style="stroke:#000000;stroke-width:1.5;" x1="91" x2="187" y1="28.2969" y2="28.2969"/><text fill="#000000" font-family="sans-serif" font-size="14" font-weight="bold" lengthAdjust="spacing" textLength="83" x="95" y="20.9951">School 1.3</text></g><!--MD5=[f6de0225f335ab8572f457deeb3c5fff]
cluster School 2.1--><g id="cluster_School 2.1"><path d="M330.5,410 L414.5,410 A3.75,3.75 0 0 1 417,412.5 L424,432.2969 L534.5,432.2969 A2.5,2.5 0 0 1 537,434.7969 L537,585.5 A2.5,2.5 0 0 1 534.5,588 L330.5,588 A2.5,2.5 0 0 1 328,585.5 L328,412.5 A2.5,2.5 0 0 1 330.5,410 " fill="none" style="stroke:#000000;stroke-width:1.5;"/><line style="stroke:#000000;stroke-width:1.5;" x1="328" x2="424" y1="432.2969" y2="432.2969"/><text fill="#000000" font-family="sans-serif" font-size="14" font-weight="bold" lengthAdjust="spacing" textLength="83" x="332" y="424.9951">School 2.1</text></g><!--MD5=[bf77d45c3fd9e1216849a5b4c0beb661]
cluster School 2.2--><g id="cluster_School 2.2"><path d="M330.5,208 L414.5,208 A3.75,3.75 0 0 1 417,210.5 L424,230.2969 L534.5,230.2969 A2.5,2.5 0 0 1 537,232.7969 L537,383.5 A2.5,2.5 0 0 1 534.5,386 L330.5,386 A2.5,2.5 0 0 1 328,383.5 L328,210.5 A2.5,2.5 0 0 1 330.5,208 " fill="none" style="stroke:#000000;stroke-width:1.5;"/><line style="stroke:#000000;stroke-width:1.5;" x1="328" x2="424" y1="230.2969" y2="230.2969"/><text fill="#000000" font-family="sans-serif" font-size="14" font-weight="bold" lengthAdjust="spacing" textLength="83" x="332" y="222.9951">School 2.2</text></g><!--MD5=[e63c7ab9b8b4b7ff865a9202fe8a56c0]
cluster School 2.3--><g id="cluster_School 2.3"><path d="M330.5,6 L414.5,6 A3.75,3.75 0 0 1 417,8.5 L424,28.2969 L534.5,28.2969 A2.5,2.5 0 0 1 537,30.7969 L537,181.5 A2.5,2.5 0 0 1 534.5,184 L330.5,184 A2.5,2.5 0 0 1 328,181.5 L328,8.5 A2.5,2.5 0 0 1 330.5,6 " fill="none" style="stroke:#000000;stroke-width:1.5;"/><line style="stroke:#000000;stroke-width:1.5;" x1="328" x2="424" y1="28.2969" y2="28.2969"/><text fill="#000000" font-family="sans-serif" font-size="14" font-weight="bold" lengthAdjust="spacing" textLength="83" x="332" y="20.9951">School 2.3</text></g><!--MD5=[ef9abead4ca3e17778da6981fb987bb8]
cluster School 3.1--><g id="cluster_School 3.1"><path d="M567.5,410 L651.5,410 A3.75,3.75 0 0 1 654,412.5 L661,432.2969 L771.5,432.2969 A2.5,2.5 0 0 1 774,434.7969 L774,585.5 A2.5,2.5 0 0 1 771.5,588 L567.5,588 A2.5,2.5 0 0 1 565,585.5 L565,412.5 A2.5,2.5 0 0 1 567.5,410 " fill="none" style="stroke:#000000;stroke-width:1.5;"/><line style="stroke:#000000;stroke-width:1.5;" x1="565" x2="661" y1="432.2969" y2="432.2969"/><text fill="#000000" font-family="sans-serif" font-size="14" font-weight="bold" lengthAdjust="spacing" textLength="83" x="569" y="424.9951">School 3.1</text></g><!--MD5=[65c9de904322d5ece138ff13f18c752e]
cluster School 3.2--><g id="cluster_School 3.2"><path d="M567.5,208 L651.5,208 A3.75,3.75 0 0 1 654,210.5 L661,230.2969 L771.5,230.2969 A2.5,2.5 0 0 1 774,232.7969 L774,383.5 A2.5,2.5 0 0 1 771.5,386 L567.5,386 A2.5,2.5 0 0 1 565,383.5 L565,210.5 A2.5,2.5 0 0 1 567.5,208 " fill="none" style="stroke:#000000;stroke-width:1.5;"/><line style="stroke:#000000;stroke-width:1.5;" x1="565" x2="661" y1="230.2969" y2="230.2969"/><text fill="#000000" font-family="sans-serif" font-size="14" font-weight="bold" lengthAdjust="spacing" textLength="83" x="569" y="222.9951">School 3.2</text></g><!--MD5=[f9c5245656591fae0d1ee6f06f46714b]
cluster School 3.3--><g id="cluster_School 3.3"><path d="M567.5,6 L651.5,6 A3.75,3.75 0 0 1 654,8.5 L661,28.2969 L771.5,28.2969 A2.5,2.5 0 0 1 774,30.7969 L774,181.5 A2.5,2.5 0 0 1 771.5,184 L567.5,184 A2.5,2.5 0 0 1 565,181.5 L565,8.5 A2.5,2.5 0 0 1 567.5,6 " fill="none" style="stroke:#000000;stroke-width:1.5;"/><line style="stroke:#000000;stroke-width:1.5;" x1="565" x2="661" y1="28.2969" y2="28.2969"/><text fill="#000000" font-family="sans-serif" font-size="14" font-weight="bold" lengthAdjust="spacing" textLength="83" x="569" y="20.9951">School 3.3</text></g><!--MD5=[f6cc37c9e8b60f62d6f3018e35d5eb8b]
entity CN1--><g id="elem_CN1"><rect fill="#00FFFF" height="46.2969" rx="2.5" ry="2.5" style="stroke:#181818;stroke-width:0.5;" width="133" x="129" y="647"/><rect fill="#00FFFF" height="10" style="stroke:#181818;stroke-width:0.5;" width="15" x="242" y="652"/><rect fill="#00FFFF" height="2" style="stroke:#181818;stroke-width:0.5;" width="4" x="240" y="654"/><rect fill="#00FFFF" height="2" style="stroke:#181818;stroke-width:0.5;" width="4" x="240" y="658"/><text fill="#000000" font-family="sans-serif" font-size="14" lengthAdjust="spacing" textLength="93" x="144" y="679.9951">Chain Node 1</text></g><!--MD5=[85b05d6bbabf1169220536d58d878ed2]
entity CN2--><g id="elem_CN2"><rect fill="#00FFFF" height="46.2969" rx="2.5" ry="2.5" style="stroke:#181818;stroke-width:0.5;" width="133" x="366" y="647"/><rect fill="#00FFFF" height="10" style="stroke:#181818;stroke-width:0.5;" width="15" x="479" y="652"/><rect fill="#00FFFF" height="2" style="stroke:#181818;stroke-width:0.5;" width="4" x="477" y="654"/><rect fill="#00FFFF" height="2" style="stroke:#181818;stroke-width:0.5;" width="4" x="477" y="658"/><text fill="#000000" font-family="sans-serif" font-size="14" lengthAdjust="spacing" textLength="93" x="381" y="679.9951">Chain Node 2</text></g><!--MD5=[9445ec9932dbdd8afc2b184988bfd1ef]
entity CN3--><g id="elem_CN3"><rect fill="#00FFFF" height="46.2969" rx="2.5" ry="2.5" style="stroke:#181818;stroke-width:0.5;" width="133" x="603" y="647"/><rect fill="#00FFFF" height="10" style="stroke:#181818;stroke-width:0.5;" width="15" x="716" y="652"/><rect fill="#00FFFF" height="2" style="stroke:#181818;stroke-width:0.5;" width="4" x="714" y="654"/><rect fill="#00FFFF" height="2" style="stroke:#181818;stroke-width:0.5;" width="4" x="714" y="658"/><text fill="#000000" font-family="sans-serif" font-size="14" lengthAdjust="spacing" textLength="93" x="618" y="679.9951">Chain Node 3</text></g><!--MD5=[d27dd283bc6bd1f9b695c3f7e95c0b6b]
entity RS11--><g id="elem_RS11"><rect fill="#00FF00" height="46.2969" rx="2.5" ry="2.5" style="stroke:#181818;stroke-width:0.5;" width="173" x="109" y="445"/><rect fill="#00FF00" height="10" style="stroke:#181818;stroke-width:0.5;" width="15" x="262" y="450"/><rect fill="#00FF00" height="2" style="stroke:#181818;stroke-width:0.5;" width="4" x="260" y="452"/><rect fill="#00FF00" height="2" style="stroke:#181818;stroke-width:0.5;" width="4" x="260" y="456"/><text fill="#000000" font-family="sans-serif" font-size="14" lengthAdjust="spacing" textLength="133" x="124" y="477.9951">Request Server 1.1</text></g><!--MD5=[0409f4c5bd595f044c62b01ce2abaf33]
entity FS11--><g id="elem_FS11"><rect fill="#F1F1F1" height="46.2969" rx="2.5" ry="2.5" style="stroke:#181818;stroke-width:0.5;" width="177" x="107" y="526"/><rect fill="#F1F1F1" height="10" style="stroke:#181818;stroke-width:0.5;" width="15" x="264" y="531"/><rect fill="#F1F1F1" height="2" style="stroke:#181818;stroke-width:0.5;" width="4" x="262" y="533"/><rect fill="#F1F1F1" height="2" style="stroke:#181818;stroke-width:0.5;" width="4" x="262" y="537"/><text fill="#000000" font-family="sans-serif" font-size="14" lengthAdjust="spacing" textLength="137" x="122" y="558.9951">Frontend Server 1.1</text></g><!--MD5=[f254b43a03d5d47357731a5336f1e7f5]
entity RS12--><g id="elem_RS12"><rect fill="#00FF00" height="46.2969" rx="2.5" ry="2.5" style="stroke:#181818;stroke-width:0.5;" width="173" x="109" y="243"/><rect fill="#00FF00" height="10" style="stroke:#181818;stroke-width:0.5;" width="15" x="262" y="248"/><rect fill="#00FF00" height="2" style="stroke:#181818;stroke-width:0.5;" width="4" x="260" y="250"/><rect fill="#00FF00" height="2" style="stroke:#181818;stroke-width:0.5;" width="4" x="260" y="254"/><text fill="#000000" font-family="sans-serif" font-size="14" lengthAdjust="spacing" textLength="133" x="124" y="275.9951">Request Server 1.2</text></g><!--MD5=[6376f27578aff0c3ee18065039fcf75d]
entity FS12--><g id="elem_FS12"><rect fill="#F1F1F1" height="46.2969" rx="2.5" ry="2.5" style="stroke:#181818;stroke-width:0.5;" width="177" x="107" y="324"/><rect fill="#F1F1F1" height="10" style="stroke:#181818;stroke-width:0.5;" width="15" x="264" y="329"/><rect fill="#F1F1F1" height="2" style="stroke:#181818;stroke-width:0.5;" width="4" x="262" y="331"/><rect fill="#F1F1F1" height="2" style="stroke:#181818;stroke-width:0.5;" width="4" x="262" y="335"/><text fill="#000000" font-family="sans-serif" font-size="14" lengthAdjust="spacing" textLength="137" x="122" y="356.9951">Frontend Server 1.2</text></g><!--MD5=[5a0e87d871a584270baebf464c125c1e]
entity RS13--><g id="elem_RS13"><rect fill="#00FF00" height="46.2969" rx="2.5" ry="2.5" style="stroke:#181818;stroke-width:0.5;" width="173" x="109" y="41"/><rect fill="#00FF00" height="10" style="stroke:#181818;stroke-width:0.5;" width="15" x="262" y="46"/><rect fill="#00FF00" height="2" style="stroke:#181818;stroke-width:0.5;" width="4" x="260" y="48"/><rect fill="#00FF00" height="2" style="stroke:#181818;stroke-width:0.5;" width="4" x="260" y="52"/><text fill="#000000" font-family="sans-serif" font-size="14" lengthAdjust="spacing" textLength="133" x="124" y="73.9951">Request Server 1.3</text></g><!--MD5=[901581f399048e0be069290243b49058]
entity FS13--><g id="elem_FS13"><rect fill="#F1F1F1" height="46.2969" rx="2.5" ry="2.5" style="stroke:#181818;stroke-width:0.5;" width="177" x="107" y="122"/><rect fill="#F1F1F1" height="10" style="stroke:#181818;stroke-width:0.5;" width="15" x="264" y="127"/><rect fill="#F1F1F1" height="2" style="stroke:#181818;stroke-width:0.5;" width="4" x="262" y="129"/><rect fill="#F1F1F1" height="2" style="stroke:#181818;stroke-width:0.5;" width="4" x="262" y="133"/><text fill="#000000" font-family="sans-serif" font-size="14" lengthAdjust="spacing" textLength="137" x="122" y="154.9951">Frontend Server 1.3</text></g><!--MD5=[e92dc973d36c04c06a18d93d0f08448f]
entity RS21--><g id="elem_RS21"><rect fill="#00FF00" height="46.2969" rx="2.5" ry="2.5" style="stroke:#181818;stroke-width:0.5;" width="173" x="346" y="445"/><rect fill="#00FF00" height="10" style="stroke:#181818;stroke-width:0.5;" width="15" x="499" y="450"/><rect fill="#00FF00" height="2" style="stroke:#181818;stroke-width:0.5;" width="4" x="497" y="452"/><rect fill="#00FF00" height="2" style="stroke:#181818;stroke-width:0.5;" width="4" x="497" y="456"/><text fill="#000000" font-family="sans-serif" font-size="14" lengthAdjust="spacing" textLength="133" x="361" y="477.9951">Request Server 2.1</text></g><!--MD5=[1f8a94921b20c328d8a91a029ea345de]
entity FS21--><g id="elem_FS21"><rect fill="#F1F1F1" height="46.2969" rx="2.5" ry="2.5" style="stroke:#181818;stroke-width:0.5;" width="177" x="344" y="526"/><rect fill="#F1F1F1" height="10" style="stroke:#181818;stroke-width:0.5;" width="15" x="501" y="531"/><rect fill="#F1F1F1" height="2" style="stroke:#181818;stroke-width:0.5;" width="4" x="499" y="533"/><rect fill="#F1F1F1" height="2" style="stroke:#181818;stroke-width:0.5;" width="4" x="499" y="537"/><text fill="#000000" font-family="sans-serif" font-size="14" lengthAdjust="spacing" textLength="137" x="359" y="558.9951">Frontend Server 2.1</text></g><!--MD5=[de71ca81179a3e726f78623ecb2720d4]
entity RS22--><g id="elem_RS22"><rect fill="#00FF00" height="46.2969" rx="2.5" ry="2.5" style="stroke:#181818;stroke-width:0.5;" width="173" x="346" y="243"/><rect fill="#00FF00" height="10" style="stroke:#181818;stroke-width:0.5;" width="15" x="499" y="248"/><rect fill="#00FF00" height="2" style="stroke:#181818;stroke-width:0.5;" width="4" x="497" y="250"/><rect fill="#00FF00" height="2" style="stroke:#181818;stroke-width:0.5;" width="4" x="497" y="254"/><text fill="#000000" font-family="sans-serif" font-size="14" lengthAdjust="spacing" textLength="133" x="361" y="275.9951">Request Server 2.2</text></g><!--MD5=[e63e3e9dee945670e0bbb5958bd72f94]
entity FS22--><g id="elem_FS22"><rect fill="#F1F1F1" height="46.2969" rx="2.5" ry="2.5" style="stroke:#181818;stroke-width:0.5;" width="177" x="344" y="324"/><rect fill="#F1F1F1" height="10" style="stroke:#181818;stroke-width:0.5;" width="15" x="501" y="329"/><rect fill="#F1F1F1" height="2" style="stroke:#181818;stroke-width:0.5;" width="4" x="499" y="331"/><rect fill="#F1F1F1" height="2" style="stroke:#181818;stroke-width:0.5;" width="4" x="499" y="335"/><text fill="#000000" font-family="sans-serif" font-size="14" lengthAdjust="spacing" textLength="137" x="359" y="356.9951">Frontend Server 2.2</text></g><!--MD5=[d024ab326cc568d64160f6e142663d22]
entity RS23--><g id="elem_RS23"><rect fill="#00FF00" height="46.2969" rx="2.5" ry="2.5" style="stroke:#181818;stroke-width:0.5;" width="173" x="346" y="41"/><rect fill="#00FF00" height="10" style="stroke:#181818;stroke-width:0.5;" width="15" x="499" y="46"/><rect fill="#00FF00" height="2" style="stroke:#181818;stroke-width:0.5;" width="4" x="497" y="48"/><rect fill="#00FF00" height="2" style="stroke:#181818;stroke-width:0.5;" width="4" x="497" y="52"/><text fill="#000000" font-family="sans-serif" font-size="14" lengthAdjust="spacing" textLength="133" x="361" y="73.9951">Request Server 2.3</text></g><!--MD5=[48c418ba1681d2a93f35c4c84017c0a7]
entity FS23--><g id="elem_FS23"><rect fill="#F1F1F1" height="46.2969" rx="2.5" ry="2.5" style="stroke:#181818;stroke-width:0.5;" width="177" x="344" y="122"/><rect fill="#F1F1F1" height="10" style="stroke:#181818;stroke-width:0.5;" width="15" x="501" y="127"/><rect fill="#F1F1F1" height="2" style="stroke:#181818;stroke-width:0.5;" width="4" x="499" y="129"/><rect fill="#F1F1F1" height="2" style="stroke:#181818;stroke-width:0.5;" width="4" x="499" y="133"/><text fill="#000000" font-family="sans-serif" font-size="14" lengthAdjust="spacing" textLength="137" x="359" y="154.9951">Frontend Server 2.3</text></g><!--MD5=[01fa5858c98d52d493d550989b69cc5b]
entity RS31--><g id="elem_RS31"><rect fill="#00FF00" height="46.2969" rx="2.5" ry="2.5" style="stroke:#181818;stroke-width:0.5;" width="173" x="583" y="445"/><rect fill="#00FF00" height="10" style="stroke:#181818;stroke-width:0.5;" width="15" x="736" y="450"/><rect fill="#00FF00" height="2" style="stroke:#181818;stroke-width:0.5;" width="4" x="734" y="452"/><rect fill="#00FF00" height="2" style="stroke:#181818;stroke-width:0.5;" width="4" x="734" y="456"/><text fill="#000000" font-family="sans-serif" font-size="14" lengthAdjust="spacing" textLength="133" x="598" y="477.9951">Request Server 3.1</text></g><!--MD5=[f7ff59592816cced16b0407b5cb9ef78]
entity FS31--><g id="elem_FS31"><rect fill="#F1F1F1" height="46.2969" rx="2.5" ry="2.5" style="stroke:#181818;stroke-width:0.5;" width="177" x="581" y="526"/><rect fill="#F1F1F1" height="10" style="stroke:#181818;stroke-width:0.5;" width="15" x="738" y="531"/><rect fill="#F1F1F1" height="2" style="stroke:#181818;stroke-width:0.5;" width="4" x="736" y="533"/><rect fill="#F1F1F1" height="2" style="stroke:#181818;stroke-width:0.5;" width="4" x="736" y="537"/><text fill="#000000" font-family="sans-serif" font-size="14" lengthAdjust="spacing" textLength="137" x="596" y="558.9951">Frontend Server 3.1</text></g><!--MD5=[5975d3c64a31d40b12512bd745903aaa]
entity RS32--><g id="elem_RS32"><rect fill="#00FF00" height="46.2969" rx="2.5" ry="2.5" style="stroke:#181818;stroke-width:0.5;" width="173" x="583" y="243"/><rect fill="#00FF00" height="10" style="stroke:#181818;stroke-width:0.5;" width="15" x="736" y="248"/><rect fill="#00FF00" height="2" style="stroke:#181818;stroke-width:0.5;" width="4" x="734" y="250"/><rect fill="#00FF00" height="2" style="stroke:#181818;stroke-width:0.5;" width="4" x="734" y="254"/><text fill="#000000" font-family="sans-serif" font-size="14" lengthAdjust="spacing" textLength="133" x="598" y="275.9951">Request Server 3.2</text></g><!--MD5=[6a25e53025f6a86116319b5bfb937018]
entity FS32--><g id="elem_FS32"><rect fill="#F1F1F1" height="46.2969" rx="2.5" ry="2.5" style="stroke:#181818;stroke-width:0.5;" width="177" x="581" y="324"/><rect fill="#F1F1F1" height="10" style="stroke:#181818;stroke-width:0.5;" width="15" x="738" y="329"/><rect fill="#F1F1F1" height="2" style="stroke:#181818;stroke-width:0.5;" width="4" x="736" y="331"/><rect fill="#F1F1F1" height="2" style="stroke:#181818;stroke-width:0.5;" width="4" x="736" y="335"/><text fill="#000000" font-family="sans-serif" font-size="14" lengthAdjust="spacing" textLength="137" x="596" y="356.9951">Frontend Server 3.2</text></g><!--MD5=[ad6f030a83e8194de49dc83ebd13c389]
entity RS33--><g id="elem_RS33"><rect fill="#00FF00" height="46.2969" rx="2.5" ry="2.5" style="stroke:#181818;stroke-width:0.5;" width="173" x="583" y="41"/><rect fill="#00FF00" height="10" style="stroke:#181818;stroke-width:0.5;" width="15" x="736" y="46"/><rect fill="#00FF00" height="2" style="stroke:#181818;stroke-width:0.5;" width="4" x="734" y="48"/><rect fill="#00FF00" height="2" style="stroke:#181818;stroke-width:0.5;" width="4" x="734" y="52"/><text fill="#000000" font-family="sans-serif" font-size="14" lengthAdjust="spacing" textLength="133" x="598" y="73.9951">Request Server 3.3</text></g><!--MD5=[06f683312852aa86d1b62b27d8cb0ad2]
entity FS33--><g id="elem_FS33"><rect fill="#F1F1F1" height="46.2969" rx="2.5" ry="2.5" style="stroke:#181818;stroke-width:0.5;" width="177" x="581" y="122"/><rect fill="#F1F1F1" height="10" style="stroke:#181818;stroke-width:0.5;" width="15" x="738" y="127"/><rect fill="#F1F1F1" height="2" style="stroke:#181818;stroke-width:0.5;" width="4" x="736" y="129"/><rect fill="#F1F1F1" height="2" style="stroke:#181818;stroke-width:0.5;" width="4" x="736" y="133"/><text fill="#000000" font-family="sans-serif" font-size="14" lengthAdjust="spacing" textLength="137" x="596" y="154.9951">Frontend Server 3.3</text></g><!--MD5=[45565a74ca8123df0b8413ce5340d40a]
entity E1--><g id="elem_E1"><rect fill="#00FFFF" height="38" rx="2.5" ry="2.5" style="stroke:#181818;stroke-width:0.5;" width="40" x="7" y="651"/><rect fill="#00FFFF" height="10" style="stroke:#181818;stroke-width:0.5;" width="15" x="27" y="656"/><rect fill="#00FFFF" height="2" style="stroke:#181818;stroke-width:0.5;" width="4" x="25" y="658"/><rect fill="#00FFFF" height="2" style="stroke:#181818;stroke-width:0.5;" width="4" x="25" y="662"/><line style="stroke:#181818;stroke-width:1.0;stroke-dasharray:1.0,2.0;" x1="8" x2="46" y1="671" y2="671"/></g><!--MD5=[a3c437a7ee715155cf6a0fec80d7cbaf]
entity E2--><g id="elem_E2"><rect fill="#00FFFF" height="38" rx="2.5" ry="2.5" style="stroke:#181818;stroke-width:0.5;" width="40" x="818" y="651"/><rect fill="#00FFFF" height="10" style="stroke:#181818;stroke-width:0.5;" width="15" x="838" y="656"/><rect fill="#00FFFF" height="2" style="stroke:#181818;stroke-width:0.5;" width="4" x="836" y="658"/><rect fill="#00FFFF" height="2" style="stroke:#181818;stroke-width:0.5;" width="4" x="836" y="662"/><line style="stroke:#181818;stroke-width:1.0;stroke-dasharray:1.0,2.0;" x1="819" x2="857" y1="671" y2="671"/></g><!--MD5=[7795ba014c21ef541e8688c27027037d]
link CN1 to CN2--><g id="link_CN1_CN2"><path d="M262.27,670 C294.59,670 333.43,670 365.74,670 " fill="none" id="CN1-CN2" style="stroke:#181818;stroke-width:1.0;"/></g><!--MD5=[ae4d3134b960b826bca3521d7132f321]
link CN2 to CN3--><g id="link_CN2_CN3"><path d="M499.27,670 C531.59,670 570.43,670 602.74,670 " fill="none" id="CN2-CN3" style="stroke:#181818;stroke-width:1.0;"/></g><!--MD5=[f6f7750c300d8cff2a6918afb36cbaf7]
link E1 to CN1--><g id="link_E1_CN1"><path d="M47.1,670 C67,670 99.32,670 128.62,670 " fill="none" id="E1-CN1" style="stroke:#181818;stroke-width:1.0;"/></g><!--MD5=[b86a65074dc84a496e13348c8d01a5f2]
link CN3 to E2--><g id="link_CN3_E2"><path d="M736.31,670 C765.57,670 797.86,670 817.78,670 " fill="none" id="CN3-E2" style="stroke:#181818;stroke-width:1.0;"/></g><!--MD5=[ca4ec106c600cce336903ff9e0a6eb72]
link RS11 to CN1--><g id="link_RS11_CN1"><path d="M130.71,491.04 C105.7,499.93 83,508 83,508 C83,508 65,525.5 65,525.5 C65,525.5 65,570.5 65,570.5 C65,570.5 83,588 83,588 C83,588 130.59,622.69 163.86,646.94 " fill="none" id="RS11-CN1" style="stroke:#181818;stroke-width:1.0;"/></g><!--MD5=[c27f828e0444548dc7b8ae3a3d26b875]
link FS11 to RS11--><g id="link_FS11_RS11"><path d="M195.5,525.75 C195.5,523.48 195.5,522 195.5,522 C195.5,522 195.5,495 195.5,495 C195.5,495 195.5,493.52 195.5,491.25 " fill="none" id="FS11-RS11" style="stroke:#181818;stroke-width:1.0;stroke-dasharray:7.0,7.0;"/></g><!--MD5=[804cd4c62bc5c659ce1f374a9754153a]
link RS12 to CN1--><g id="link_RS12_CN1"><path d="M130.71,289.04 C105.7,297.93 83,306 83,306 C83,306 65,323.5 65,323.5 C65,323.5 65,570.5 65,570.5 C65,570.5 83,588 83,588 C83,588 130.59,622.69 163.86,646.94 " fill="none" id="RS12-CN1" style="stroke:#181818;stroke-width:1.0;"/></g><!--MD5=[303f4f9f0787181e52c08994e4a66774]
link FS12 to RS12--><g id="link_FS12_RS12"><path d="M195.5,323.75 C195.5,321.48 195.5,320 195.5,320 C195.5,320 195.5,293 195.5,293 C195.5,293 195.5,291.52 195.5,289.25 " fill="none" id="FS12-RS12" style="stroke:#181818;stroke-width:1.0;stroke-dasharray:7.0,7.0;"/></g><!--MD5=[57043086bdee8b856dbed709191e8cb4]
link RS13 to CN1--><g id="link_RS13_CN1"><path d="M130.71,87.04 C105.7,95.93 83,104 83,104 C83,104 65,121.5 65,121.5 C65,121.5 65,570.5 65,570.5 C65,570.5 83,588 83,588 C83,588 130.59,622.69 163.86,646.94 " fill="none" id="RS13-CN1" style="stroke:#181818;stroke-width:1.0;"/></g><!--MD5=[72ed085ac66d872e98ecc9aefda61f22]
link FS13 to RS13--><g id="link_FS13_RS13"><path d="M195.5,121.75 C195.5,119.48 195.5,118 195.5,118 C195.5,118 195.5,91 195.5,91 C195.5,91 195.5,89.52 195.5,87.25 " fill="none" id="FS13-RS13" style="stroke:#181818;stroke-width:1.0;stroke-dasharray:7.0,7.0;"/></g><!--MD5=[37039fe6cff6917f1d642e0391c1faa2]
link RS21 to CN2--><g id="link_RS21_CN2"><path d="M367.71,491.04 C342.7,499.93 320,508 320,508 C320,508 314,525.5 314,525.5 C314,525.5 314,570.5 314,570.5 C314,570.5 320,588 320,588 C320,588 367.59,622.69 400.86,646.94 " fill="none" id="RS21-CN2" style="stroke:#181818;stroke-width:1.0;"/></g><!--MD5=[52717819a373af7654a0772798999fa4]
link FS21 to RS21--><g id="link_FS21_RS21"><path d="M432.5,525.75 C432.5,523.48 432.5,522 432.5,522 C432.5,522 432.5,495 432.5,495 C432.5,495 432.5,493.52 432.5,491.25 " fill="none" id="FS21-RS21" style="stroke:#181818;stroke-width:1.0;stroke-dasharray:7.0,7.0;"/></g><!--MD5=[da36f0fde3e10f854830d21c407ab56e]
link RS22 to CN2--><g id="link_RS22_CN2"><path d="M367.71,289.04 C342.7,297.93 320,306 320,306 C320,306 314,323.5 314,323.5 C314,323.5 314,570.5 314,570.5 C314,570.5 320,588 320,588 C320,588 367.59,622.69 400.86,646.94 " fill="none" id="RS22-CN2" style="stroke:#181818;stroke-width:1.0;"/></g><!--MD5=[6d41c152af38d75fe48ab70e30a12180]
link FS22 to RS22--><g id="link_FS22_RS22"><path d="M432.5,323.75 C432.5,321.48 432.5,320 432.5,320 C432.5,320 432.5,293 432.5,293 C432.5,293 432.5,291.52 432.5,289.25 " fill="none" id="FS22-RS22" style="stroke:#181818;stroke-width:1.0;stroke-dasharray:7.0,7.0;"/></g><!--MD5=[7f439b54d61bf04e3d2fe736deac2aeb]
link RS23 to CN2--><g id="link_RS23_CN2"><path d="M367.71,87.04 C342.7,95.93 320,104 320,104 C320,104 314,121.5 314,121.5 C314,121.5 314,570.5 314,570.5 C314,570.5 320,588 320,588 C320,588 367.59,622.69 400.86,646.94 " fill="none" id="RS23-CN2" style="stroke:#181818;stroke-width:1.0;"/></g><!--MD5=[4fc3c4855312b89e09c4336d8d24daa4]
link FS23 to RS23--><g id="link_FS23_RS23"><path d="M432.5,121.75 C432.5,119.48 432.5,118 432.5,118 C432.5,118 432.5,91 432.5,91 C432.5,91 432.5,89.52 432.5,87.25 " fill="none" id="FS23-RS23" style="stroke:#181818;stroke-width:1.0;stroke-dasharray:7.0,7.0;"/></g><!--MD5=[48ad664750501babefb5a9d7f2e28ffc]
link RS31 to CN3--><g id="link_RS31_CN3"><path d="M604.71,491.04 C579.7,499.93 557,508 557,508 C557,508 551,525.5 551,525.5 C551,525.5 551,570.5 551,570.5 C551,570.5 557,588 557,588 C557,588 604.59,622.69 637.86,646.94 " fill="none" id="RS31-CN3" style="stroke:#181818;stroke-width:1.0;"/></g><!--MD5=[97e311a0d0ed955f3f2d4c14e9d41d81]
link FS31 to RS31--><g id="link_FS31_RS31"><path d="M669.5,525.75 C669.5,523.48 669.5,522 669.5,522 C669.5,522 669.5,495 669.5,495 C669.5,495 669.5,493.52 669.5,491.25 " fill="none" id="FS31-RS31" style="stroke:#181818;stroke-width:1.0;stroke-dasharray:7.0,7.0;"/></g><!--MD5=[d2fd3b78f2d2079b6d0d5ae4cb26da0d]
link RS32 to CN3--><g id="link_RS32_CN3"><path d="M604.71,289.04 C579.7,297.93 557,306 557,306 C557,306 551,323.5 551,323.5 C551,323.5 551,570.5 551,570.5 C551,570.5 557,588 557,588 C557,588 604.59,622.69 637.86,646.94 " fill="none" id="RS32-CN3" style="stroke:#181818;stroke-width:1.0;"/></g><!--MD5=[c3a7df335e6774fb577ab7ba21157a96]
link FS32 to RS32--><g id="link_FS32_RS32"><path d="M669.5,323.75 C669.5,321.48 669.5,320 669.5,320 C669.5,320 669.5,293 669.5,293 C669.5,293 669.5,291.52 669.5,289.25 " fill="none" id="FS32-RS32" style="stroke:#181818;stroke-width:1.0;stroke-dasharray:7.0,7.0;"/></g><!--MD5=[c6ba5f74f258224a68b89c15583b0fd2]
link RS33 to CN3--><g id="link_RS33_CN3"><path d="M604.71,87.04 C579.7,95.93 557,104 557,104 C557,104 551,121.5 551,121.5 C551,121.5 551,570.5 551,570.5 C551,570.5 557,588 557,588 C557,588 604.59,622.69 637.86,646.94 " fill="none" id="RS33-CN3" style="stroke:#181818;stroke-width:1.0;"/></g><!--MD5=[5bc74547b11bfd81e25d7e101ad62e74]
link FS33 to RS33--><g id="link_FS33_RS33"><path d="M669.5,121.75 C669.5,119.48 669.5,118 669.5,118 C669.5,118 669.5,91 669.5,91 C669.5,91 669.5,89.52 669.5,87.25 " fill="none" id="FS33-RS33" style="stroke:#181818;stroke-width:1.0;stroke-dasharray:7.0,7.0;"/></g><!--MD5=[696dcc6bd0afb525a4d0377ca2708bc1]
@startuml

skinparam linetype polyline
left to right direction

package "Department 1" {
component "Chain Node 1" as CN1 #Aqua
}

package "Department 2" {
component "Chain Node 2" as CN2 #Aqua
}

package "Department 3" {
component "Chain Node 3" as CN3 #Aqua
}

component ".." as E1 #Aqua
component ".." as E2 #Aqua

CN1 -d- CN2
CN2 -d- CN3

CN1 -u- E1
CN3 -d- E2

package "School 1.1" {
component "Request Server 1.1" as RS11 #Lime
component "Frontend Server 1.1" as FS11
RS11 -r- CN1
FS11 .r. RS11
}

package "School 1.2" {
component "Request Server 1.2" as RS12 #Lime
component "Frontend Server 1.2" as FS12
RS12 -r- CN1
FS12 .r. RS12
}

package "School 1.3" {
component "Request Server 1.3" as RS13 #Lime
component "Frontend Server 1.3" as FS13
RS13 -r- CN1
FS13 .r. RS13
}

package "School 2.1" {
component "Request Server 2.1" as RS21 #Lime
component "Frontend Server 2.1" as FS21
RS21 -r- CN2
FS21 .r. RS21
}

package "School 2.2" {
component "Request Server 2.2" as RS22 #Lime
component "Frontend Server 2.2" as FS22
RS22 -r- CN2
FS22 .r. RS22
}

package "School 2.3" {
component "Request Server 2.3" as RS23 #Lime
component "Frontend Server 2.3" as FS23
RS23 -r- CN2
FS23 .r. RS23
}

package "School 3.1" {
component "Request Server 3.1" as RS31 #Lime
component "Frontend Server 3.1" as FS31
RS31 -r- CN3
FS31 .r. RS31
}

package "School 3.2" {
component "Request Server 3.2" as RS32 #Lime
component "Frontend Server 3.2" as FS32
RS32 -r- CN3
FS32 .r. RS32
}

package "School 3.3" {
component "Request Server 3.3" as RS33 #Lime
component "Frontend Server 3.3" as FS33
RS33 -r- CN3
FS33 .r. RS33
}

@enduml

PlantUML version 1.2022.7(Mon Aug 22 17:01:30 UTC 2022)
(GPL source distribution)
Java Runtime: OpenJDK Runtime Environment
JVM: OpenJDK 64-Bit Server VM
Default Encoding: UTF-8
Language: en
Country: null
--></g></svg>