<?xml version="1.0" encoding="UTF-8" standalone="no"?><svg xmlns="http://www.w3.org/2000/svg" xmlns:xlink="http://www.w3.org/1999/xlink" contentStyleType="text/css" height="272px" preserveAspectRatio="none" style="width:825px;height:272px;background:#FFFFFF;" version="1.1" viewBox="0 0 825 272" width="825px" zoomAndPan="magnify"><defs/><g><!--MD5=[d920d55716df45b535ac4accfce5b165]
cluster School 1--><g id="cluster_School 1"><path d="M93.5,6 L162.5,6 A3.75,3.75 0 0 1 165,8.5 L172,28.2969 L284.5,28.2969 A2.5,2.5 0 0 1 287,30.7969 L287,262.5 A2.5,2.5 0 0 1 284.5,265 L93.5,265 A2.5,2.5 0 0 1 91,262.5 L91,8.5 A2.5,2.5 0 0 1 93.5,6 " fill="none" style="stroke:#000000;stroke-width:1.5;"/><line style="stroke:#000000;stroke-width:1.5;" x1="91" x2="172" y1="28.2969" y2="28.2969"/><text fill="#000000" font-family="sans-serif" font-size="14" font-weight="bold" lengthAdjust="spacing" textLength="68" x="95" y="20.9951">School 1</text></g><!--MD5=[2b1a277feea1de99518f84237fe0e087]
cluster School 2--><g id="cluster_School 2"><path d="M317.5,6 L386.5,6 A3.75,3.75 0 0 1 389,8.5 L396,28.2969 L508.5,28.2969 A2.5,2.5 0 0 1 511,30.7969 L511,262.5 A2.5,2.5 0 0 1 508.5,265 L317.5,265 A2.5,2.5 0 0 1 315,262.5 L315,8.5 A2.5,2.5 0 0 1 317.5,6 " fill="none" style="stroke:#000000;stroke-width:1.5;"/><line style="stroke:#000000;stroke-width:1.5;" x1="315" x2="396" y1="28.2969" y2="28.2969"/><text fill="#000000" font-family="sans-serif" font-size="14" font-weight="bold" lengthAdjust="spacing" textLength="68" x="319" y="20.9951">School 2</text></g><!--MD5=[6682cfb3b3e98dad83ca0012c76fc7c1]
cluster School 3--><g id="cluster_School 3"><path d="M541.5,6 L610.5,6 A3.75,3.75 0 0 1 613,8.5 L620,28.2969 L732.5,28.2969 A2.5,2.5 0 0 1 735,30.7969 L735,262.5 A2.5,2.5 0 0 1 732.5,265 L541.5,265 A2.5,2.5 0 0 1 539,262.5 L539,8.5 A2.5,2.5 0 0 1 541.5,6 " fill="none" style="stroke:#000000;stroke-width:1.5;"/><line style="stroke:#000000;stroke-width:1.5;" x1="539" x2="620" y1="28.2969" y2="28.2969"/><text fill="#000000" font-family="sans-serif" font-size="14" font-weight="bold" lengthAdjust="spacing" textLength="68" x="543" y="20.9951">School 3</text></g><!--MD5=[f6cc37c9e8b60f62d6f3018e35d5eb8b]
entity CN1--><g id="elem_CN1"><rect fill="#00FFFF" height="46.2969" rx="2.5" ry="2.5" style="stroke:#181818;stroke-width:0.5;" width="133" x="122.5" y="41"/><rect fill="#00FFFF" height="10" style="stroke:#181818;stroke-width:0.5;" width="15" x="235.5" y="46"/><rect fill="#00FFFF" height="2" style="stroke:#181818;stroke-width:0.5;" width="4" x="233.5" y="48"/><rect fill="#00FFFF" height="2" style="stroke:#181818;stroke-width:0.5;" width="4" x="233.5" y="52"/><text fill="#000000" font-family="sans-serif" font-size="14" lengthAdjust="spacing" textLength="93" x="137.5" y="73.9951">Chain Node 1</text></g><!--MD5=[7a9726a6fe84c8dd973c43db7c2878b8]
entity RS1--><g id="elem_RS1"><rect fill="#00FF00" height="46.2969" rx="2.5" ry="2.5" style="stroke:#181818;stroke-width:0.5;" width="160" x="109" y="122"/><rect fill="#00FF00" height="10" style="stroke:#181818;stroke-width:0.5;" width="15" x="249" y="127"/><rect fill="#00FF00" height="2" style="stroke:#181818;stroke-width:0.5;" width="4" x="247" y="129"/><rect fill="#00FF00" height="2" style="stroke:#181818;stroke-width:0.5;" width="4" x="247" y="133"/><text fill="#000000" font-family="sans-serif" font-size="14" lengthAdjust="spacing" textLength="120" x="124" y="154.9951">Request Server 1</text></g><!--MD5=[b1dda042a4b58de7b70d8eedb054256b]
entity FS1--><g id="elem_FS1"><rect fill="#F1F1F1" height="46.2969" rx="2.5" ry="2.5" style="stroke:#181818;stroke-width:0.5;" width="164" x="107" y="203"/><rect fill="#F1F1F1" height="10" style="stroke:#181818;stroke-width:0.5;" width="15" x="251" y="208"/><rect fill="#F1F1F1" height="2" style="stroke:#181818;stroke-width:0.5;" width="4" x="249" y="210"/><rect fill="#F1F1F1" height="2" style="stroke:#181818;stroke-width:0.5;" width="4" x="249" y="214"/><text fill="#000000" font-family="sans-serif" font-size="14" lengthAdjust="spacing" textLength="124" x="122" y="235.9951">Frontend Server 1</text></g><!--MD5=[85b05d6bbabf1169220536d58d878ed2]
entity CN2--><g id="elem_CN2"><rect fill="#00FFFF" height="46.2969" rx="2.5" ry="2.5" style="stroke:#181818;stroke-width:0.5;" width="133" x="346.5" y="41"/><rect fill="#00FFFF" height="10" style="stroke:#181818;stroke-width:0.5;" width="15" x="459.5" y="46"/><rect fill="#00FFFF" height="2" style="stroke:#181818;stroke-width:0.5;" width="4" x="457.5" y="48"/><rect fill="#00FFFF" height="2" style="stroke:#181818;stroke-width:0.5;" width="4" x="457.5" y="52"/><text fill="#000000" font-family="sans-serif" font-size="14" lengthAdjust="spacing" textLength="93" x="361.5" y="73.9951">Chain Node 2</text></g><!--MD5=[5921badd903a5b43e14c7bc46574495d]
entity RS2--><g id="elem_RS2"><rect fill="#00FF00" height="46.2969" rx="2.5" ry="2.5" style="stroke:#181818;stroke-width:0.5;" width="160" x="333" y="122"/><rect fill="#00FF00" height="10" style="stroke:#181818;stroke-width:0.5;" width="15" x="473" y="127"/><rect fill="#00FF00" height="2" style="stroke:#181818;stroke-width:0.5;" width="4" x="471" y="129"/><rect fill="#00FF00" height="2" style="stroke:#181818;stroke-width:0.5;" width="4" x="471" y="133"/><text fill="#000000" font-family="sans-serif" font-size="14" lengthAdjust="spacing" textLength="120" x="348" y="154.9951">Request Server 2</text></g><!--MD5=[fa7a79afeb1c975f9b66d53153df007b]
entity FS2--><g id="elem_FS2"><rect fill="#F1F1F1" height="46.2969" rx="2.5" ry="2.5" style="stroke:#181818;stroke-width:0.5;" width="164" x="331" y="203"/><rect fill="#F1F1F1" height="10" style="stroke:#181818;stroke-width:0.5;" width="15" x="475" y="208"/><rect fill="#F1F1F1" height="2" style="stroke:#181818;stroke-width:0.5;" width="4" x="473" y="210"/><rect fill="#F1F1F1" height="2" style="stroke:#181818;stroke-width:0.5;" width="4" x="473" y="214"/><text fill="#000000" font-family="sans-serif" font-size="14" lengthAdjust="spacing" textLength="124" x="346" y="235.9951">Frontend Server 2</text></g><!--MD5=[9445ec9932dbdd8afc2b184988bfd1ef]
entity CN3--><g id="elem_CN3"><rect fill="#00FFFF" height="46.2969" rx="2.5" ry="2.5" style="stroke:#181818;stroke-width:0.5;" width="133" x="570.5" y="41"/><rect fill="#00FFFF" height="10" style="stroke:#181818;stroke-width:0.5;" width="15" x="683.5" y="46"/><rect fill="#00FFFF" height="2" style="stroke:#181818;stroke-width:0.5;" width="4" x="681.5" y="48"/><rect fill="#00FFFF" height="2" style="stroke:#181818;stroke-width:0.5;" width="4" x="681.5" y="52"/><text fill="#000000" font-family="sans-serif" font-size="14" lengthAdjust="spacing" textLength="93" x="585.5" y="73.9951">Chain Node 3</text></g><!--MD5=[2e820fb2a50624e3df7aad72d4616637]
entity RS3--><g id="elem_RS3"><rect fill="#00FF00" height="46.2969" rx="2.5" ry="2.5" style="stroke:#181818;stroke-width:0.5;" width="160" x="557" y="122"/><rect fill="#00FF00" height="10" style="stroke:#181818;stroke-width:0.5;" width="15" x="697" y="127"/><rect fill="#00FF00" height="2" style="stroke:#181818;stroke-width:0.5;" width="4" x="695" y="129"/><rect fill="#00FF00" height="2" style="stroke:#181818;stroke-width:0.5;" width="4" x="695" y="133"/><text fill="#000000" font-family="sans-serif" font-size="14" lengthAdjust="spacing" textLength="120" x="572" y="154.9951">Request Server 3</text></g><!--MD5=[2417f7c8b73886c13f09e56d6cb55c8c]
entity FS3--><g id="elem_FS3"><rect fill="#F1F1F1" height="46.2969" rx="2.5" ry="2.5" style="stroke:#181818;stroke-width:0.5;" width="164" x="555" y="203"/><rect fill="#F1F1F1" height="10" style="stroke:#181818;stroke-width:0.5;" width="15" x="699" y="208"/><rect fill="#F1F1F1" height="2" style="stroke:#181818;stroke-width:0.5;" width="4" x="697" y="210"/><rect fill="#F1F1F1" height="2" style="stroke:#181818;stroke-width:0.5;" width="4" x="697" y="214"/><text fill="#000000" font-family="sans-serif" font-size="14" lengthAdjust="spacing" textLength="124" x="570" y="235.9951">Frontend Server 3</text></g><!--MD5=[45565a74ca8123df0b8413ce5340d40a]
entity E1--><g id="elem_E1"><rect fill="#00FFFF" height="38" rx="2.5" ry="2.5" style="stroke:#181818;stroke-width:0.5;" width="40" x="7" y="45"/><rect fill="#00FFFF" height="10" style="stroke:#181818;stroke-width:0.5;" width="15" x="27" y="50"/><rect fill="#00FFFF" height="2" style="stroke:#181818;stroke-width:0.5;" width="4" x="25" y="52"/><rect fill="#00FFFF" height="2" style="stroke:#181818;stroke-width:0.5;" width="4" x="25" y="56"/><line style="stroke:#181818;stroke-width:1.0;stroke-dasharray:1.0,2.0;" x1="8" x2="46" y1="65" y2="65"/></g><!--MD5=[a3c437a7ee715155cf6a0fec80d7cbaf]
entity E2--><g id="elem_E2"><rect fill="#00FFFF" height="38" rx="2.5" ry="2.5" style="stroke:#181818;stroke-width:0.5;" width="40" x="779" y="45"/><rect fill="#00FFFF" height="10" style="stroke:#181818;stroke-width:0.5;" width="15" x="799" y="50"/><rect fill="#00FFFF" height="2" style="stroke:#181818;stroke-width:0.5;" width="4" x="797" y="52"/><rect fill="#00FFFF" height="2" style="stroke:#181818;stroke-width:0.5;" width="4" x="797" y="56"/><line style="stroke:#181818;stroke-width:1.0;stroke-dasharray:1.0,2.0;" x1="780" x2="818" y1="65" y2="65"/></g><!--MD5=[ef62d5c5d171f03c66f30b2858454899]
link RS1 to CN1--><g id="link_RS1_CN1"><path d="M189,121.9 C189,110.29 189,98.68 189,87.07 " fill="none" id="RS1-CN1" style="stroke:#181818;stroke-width:1.0;"/></g><!--MD5=[2091d450ab39ca19b8d18b82285473c2]
link FS1 to RS1--><g id="link_FS1_RS1"><path d="M189,202.9 C189,191.29 189,179.68 189,168.07 " fill="none" id="FS1-RS1" style="stroke:#181818;stroke-width:1.0;stroke-dasharray:7.0,7.0;"/></g><!--MD5=[ea7149d1cbf376f3f35bdfa87f72176e]
link RS2 to CN2--><g id="link_RS2_CN2"><path d="M413,121.9 C413,110.29 413,98.68 413,87.07 " fill="none" id="RS2-CN2" style="stroke:#181818;stroke-width:1.0;"/></g><!--MD5=[c78a0e2778e157b45c8d40016bd7f416]
link FS2 to RS2--><g id="link_FS2_RS2"><path d="M413,202.9 C413,191.29 413,179.68 413,168.07 " fill="none" id="FS2-RS2" style="stroke:#181818;stroke-width:1.0;stroke-dasharray:7.0,7.0;"/></g><!--MD5=[c7aa1c9c9eea72768490006743f58c8e]
link RS3 to CN3--><g id="link_RS3_CN3"><path d="M637,121.9 C637,110.29 637,98.68 637,87.07 " fill="none" id="RS3-CN3" style="stroke:#181818;stroke-width:1.0;"/></g><!--MD5=[abb9ba23e622b22793728305a89ef9b8]
link FS3 to RS3--><g id="link_FS3_RS3"><path d="M637,202.9 C637,191.29 637,179.68 637,168.07 " fill="none" id="FS3-RS3" style="stroke:#181818;stroke-width:1.0;stroke-dasharray:7.0,7.0;"/></g><!--MD5=[7795ba014c21ef541e8688c27027037d]
link CN1 to CN2--><g id="link_CN1_CN2"><path d="M255.71,64 C284.35,64 317.84,64 346.46,64 " fill="none" id="CN1-CN2" style="stroke:#181818;stroke-width:1.0;"/></g><!--MD5=[ae4d3134b960b826bca3521d7132f321]
link CN2 to CN3--><g id="link_CN2_CN3"><path d="M479.71,64 C508.35,64 541.84,64 570.46,64 " fill="none" id="CN2-CN3" style="stroke:#181818;stroke-width:1.0;"/></g><!--MD5=[f6f7750c300d8cff2a6918afb36cbaf7]
link E1 to CN1--><g id="link_E1_CN1"><path d="M47.3,64 C65.92,64 95.18,64 122.2,64 " fill="none" id="E1-CN1" style="stroke:#181818;stroke-width:1.0;"/></g><!--MD5=[b86a65074dc84a496e13348c8d01a5f2]
link CN3 to E2--><g id="link_CN3_E2"><path d="M703.54,64 C730.64,64 760.03,64 778.7,64 " fill="none" id="CN3-E2" style="stroke:#181818;stroke-width:1.0;"/></g><!--MD5=[14b0175306643f7a019ffa7068be7ae1]
@startuml

left to right direction

package "School 1" {
component "Chain Node 1" as CN1 #Aqua
component "Request Server 1" as RS1 #Lime
component "Frontend Server 1" as FS1
RS1 - CN1
FS1 . RS1
}

package "School 2" {
component "Chain Node 2" as CN2 #Aqua
component "Request Server 2" as RS2 #Lime
component "Frontend Server 2" as FS2
RS2 - CN2
FS2 . RS2
}

package "School 3" {
component "Chain Node 3" as CN3 #Aqua
component "Request Server 3" as RS3 #Lime
component "Frontend Server 3" as FS3
RS3 - CN3
FS3 . RS3
}

component ".." as E1 #Aqua
component ".." as E2 #Aqua

CN1 - - CN2
CN2 - - CN3

E1 - - CN1
CN3 - - E2

@enduml

PlantUML version 1.2022.7(Mon Aug 22 17:01:30 UTC 2022)
(GPL source distribution)
Java Runtime: OpenJDK Runtime Environment
JVM: OpenJDK 64-Bit Server VM
Default Encoding: UTF-8
Language: en
Country: null
--></g></svg>