<?xml version="1.0" encoding="UTF-8" standalone="no"?><svg xmlns="http://www.w3.org/2000/svg" xmlns:xlink="http://www.w3.org/1999/xlink" contentStyleType="text/css" height="874px" preserveAspectRatio="none" style="width:530px;height:874px;background:#FFFFFF;" version="1.1" viewBox="0 0 530 874" width="530px" zoomAndPan="magnify"><defs/><g><!--MD5=[8ef5a67bb49141f23749b027f3f709ec]
cluster Off-Chain--><g id="cluster_Off-Chain"><rect fill="none" height="576" rx="2.5" ry="2.5" style="stroke:#181818;stroke-width:1.0;" width="216" x="299.5" y="292.5"/><text fill="#000000" font-family="sans-serif" font-size="14" font-weight="bold" lengthAdjust="spacing" textLength="74" x="370.5" y="307.4951">Off-Chain</text></g><!--MD5=[fa22133790cf4a2890162495b91644eb]
cluster On-Chain--><g id="cluster_On-Chain"><rect fill="none" height="245" rx="2.5" ry="2.5" style="stroke:#181818;stroke-width:1.0;" width="233" x="291" y="23.5"/><text fill="#000000" font-family="sans-serif" font-size="14" font-weight="bold" lengthAdjust="spacing" textLength="72" x="371.5" y="38.4951">On-Chain</text></g><g id="elem_UC_U_R"><ellipse cx="407.3872" cy="413.2774" fill="#F1F1F1" rx="91.8872" ry="20.7774" style="stroke:#181818;stroke-width:0.5;"/><text fill="#000000" font-family="sans-serif" font-size="14" lengthAdjust="spacing" textLength="146" x="334.3872" y="416.1241">Request Registration</text></g><g id="elem_UC_U_L"><ellipse cx="407.7231" cy="553.5485" fill="#F1F1F1" rx="37.7231" ry="14.5485" style="stroke:#181818;stroke-width:0.5;"/><text fill="#000000" font-family="sans-serif" font-size="14" lengthAdjust="spacing" textLength="37" x="387.6116" y="556.9312">Login</text></g><g id="elem_UC_T_VC"><ellipse cx="407.5625" cy="342.5125" fill="#F1F1F1" rx="63.0625" ry="15.0125" style="stroke:#181818;stroke-width:0.5;"/><text fill="#000000" font-family="sans-serif" font-size="14" lengthAdjust="spacing" textLength="73" x="368.0625" y="346.2601">View Class</text></g><g id="elem_UC_T_VS"><ellipse cx="407.3073" cy="486.3615" fill="#F1F1F1" rx="72.3073" ry="16.8615" style="stroke:#181818;stroke-width:0.5;"/><text fill="#000000" font-family="sans-serif" font-size="14" lengthAdjust="spacing" textLength="99" x="354.8073" y="490.109">View Students</text></g><g id="elem_UC_A_CC"><ellipse cx="407.3807" cy="767.4761" fill="#F1F1F1" rx="67.8807" ry="15.9761" style="stroke:#181818;stroke-width:0.5;"/><text fill="#000000" font-family="sans-serif" font-size="14" lengthAdjust="spacing" textLength="87" x="360.8807" y="771.2237">Create Class</text></g><g id="elem_UC_A_VT"><ellipse cx="407.5634" cy="835.4127" fill="#F1F1F1" rx="70.0634" ry="16.4127" style="stroke:#181818;stroke-width:0.5;"/><text fill="#000000" font-family="sans-serif" font-size="14" lengthAdjust="spacing" textLength="93" x="358.0634" y="839.1602">View Teacher</text></g><g id="elem_UC_A_RR"><ellipse cx="407.4744" cy="623.3949" fill="#F1F1F1" rx="87.4744" ry="19.8949" style="stroke:#181818;stroke-width:0.5;"/><text fill="#000000" font-family="sans-serif" font-size="14" lengthAdjust="spacing" textLength="136" x="339.4744" y="626.2416">Review Registration</text></g><g id="elem_UC_A_ETL"><ellipse cx="407.288" cy="697.3576" fill="#F1F1F1" rx="82.288" ry="18.8576" style="stroke:#181818;stroke-width:0.5;"/><text fill="#000000" font-family="sans-serif" font-size="14" lengthAdjust="spacing" textLength="124" x="344.4505" y="700.4838">Export teacher list</text></g><g id="elem_UC_S_SR"><ellipse cx="407.6144" cy="151.4229" fill="#F1F1F1" rx="90.1144" ry="20.4229" style="stroke:#181818;stroke-width:0.5;"/><text fill="#000000" font-family="sans-serif" font-size="14" lengthAdjust="spacing" textLength="142" x="336.6144" y="154.2696">See student records</text></g><g id="elem_UC_T_UR"><ellipse cx="407.4278" cy="229.4856" fill="#F1F1F1" rx="100.4278" ry="22.4856" style="stroke:#181818;stroke-width:0.5;"/><text fill="#000000" font-family="sans-serif" font-size="14" lengthAdjust="spacing" textLength="165" x="324.9278" y="232.3322">Update student records</text></g><g id="elem_UC_OA_MT"><ellipse cx="407.6107" cy="77.5221" fill="#F1F1F1" rx="80.6107" ry="18.5221" style="stroke:#181818;stroke-width:0.5;"/><text fill="#000000" font-family="sans-serif" font-size="14" lengthAdjust="spacing" textLength="120" x="346.1726" y="80.8348">Manage teachers</text></g><!--MD5=[ee0fec323975fbe97ba28321ad4c4bf3]
entity U--><g id="elem_U"><ellipse cx="61.5" cy="504" fill="#F1F1F1" rx="8" ry="8" style="stroke:#181818;stroke-width:0.5;"/><path d="M61.5,512 L61.5,539 M48.5,520 L74.5,520 M61.5,539 L48.5,554 M61.5,539 L74.5,554 " fill="none" style="stroke:#181818;stroke-width:0.5;"/><text fill="#000000" font-family="sans-serif" font-size="14" lengthAdjust="spacing" textLength="84" x="19.5" y="568.4951">Normal User</text></g><!--MD5=[8ad42e69c823d91e931492f14bc2a1bb]
entity S--><g id="elem_S"><ellipse cx="61.5" cy="125" fill="#F1F1F1" rx="8" ry="8" style="stroke:#181818;stroke-width:0.5;"/><path d="M61.5,133 L61.5,160 M48.5,141 L74.5,141 M61.5,160 L48.5,175 M61.5,160 L74.5,175 " fill="none" style="stroke:#181818;stroke-width:0.5;"/><text fill="#000000" font-family="sans-serif" font-size="14" lengthAdjust="spacing" textLength="55" x="34" y="189.4951">Student</text></g><!--MD5=[1daea32f23ea6c81361d0f13801d7efd]
entity T--><g id="elem_T"><ellipse cx="61.5" cy="274" fill="#F1F1F1" rx="8" ry="8" style="stroke:#181818;stroke-width:0.5;"/><path d="M61.5,282 L61.5,309 M48.5,290 L74.5,290 M61.5,309 L48.5,324 M61.5,309 L74.5,324 " fill="none" style="stroke:#181818;stroke-width:0.5;"/><text fill="#000000" font-family="sans-serif" font-size="14" lengthAdjust="spacing" textLength="57" x="33" y="338.4951">Teacher</text></g><!--MD5=[770389ab9df153645bc6ef28055eb2b5]
entity A--><g id="elem_A"><ellipse cx="61.5" cy="631" fill="#F1F1F1" rx="8" ry="8" style="stroke:#181818;stroke-width:0.5;"/><path d="M61.5,639 L61.5,666 M48.5,647 L74.5,647 M61.5,666 L48.5,681 M61.5,666 L74.5,681 " fill="none" style="stroke:#181818;stroke-width:0.5;"/><text fill="#000000" font-family="sans-serif" font-size="14" lengthAdjust="spacing" textLength="43" x="40" y="695.4951">Admin</text></g><!--MD5=[9a762eefa6a5e3fba0376d4fc87b4ea8]
entity OA--><g id="elem_OA"><ellipse cx="61.5" cy="14" fill="#F1F1F1" rx="8" ry="8" style="stroke:#181818;stroke-width:0.5;"/><path d="M61.5,22 L61.5,49 M48.5,30 L74.5,30 M61.5,49 L48.5,64 M61.5,49 L74.5,64 " fill="none" style="stroke:#181818;stroke-width:0.5;"/><text fill="#000000" font-family="sans-serif" font-size="14" lengthAdjust="spacing" textLength="111" x="6" y="78.4951">On-Chain Admin</text></g><!--MD5=[fd4aae673283eb226c6f20d8e0ade840]
link U to UC_U_R--><g id="link_U_UC_U_R"><path d="M103.88,505.99 C117.25,497.94 132.39,489.66 147,483.5 C206.98,458.22 278.65,439.7 331.46,428.09 " fill="none" id="U-to-UC_U_R" style="stroke:#181818;stroke-width:1.0;"/><polygon fill="#181818" points="336.51,426.99,326.8676,424.9838,331.6231,428.0474,328.5595,432.8029,336.51,426.99" style="stroke:#181818;stroke-width:1.0;"/></g><!--MD5=[213eff773a08d986eb9a49ca9301d478]
link U to UC_U_L--><g id="link_U_UC_U_L"><path d="M103.65,535.89 C169.79,539.74 298.99,547.25 365.21,551.1 " fill="none" id="U-to-UC_U_L" style="stroke:#181818;stroke-width:1.0;"/><polygon fill="#181818" points="370.26,551.39,361.5036,546.8816,365.2682,551.1039,361.0459,554.8685,370.26,551.39" style="stroke:#181818;stroke-width:1.0;"/></g><!--MD5=[a6952a6fecb1b23117c7ef67a9922e45]
link S to UC_S_SR--><g id="link_S_UC_S_SR"><path d="M89.21,154.27 C136.38,153.86 236.57,152.98 311.83,152.33 " fill="none" id="S-to-UC_S_SR" style="stroke:#181818;stroke-width:1.0;"/><polygon fill="#181818" points="317.2,152.28,308.1549,148.3831,312.2003,152.3371,308.2463,156.3826,317.2,152.28" style="stroke:#181818;stroke-width:1.0;"/><text fill="#000000" font-family="sans-serif" font-size="13" lengthAdjust="spacing" textLength="114" x="154" y="149.5669">Own Records Only</text></g><!--MD5=[e271588f57ded371e50507fd7044b464]
link T to UC_T_VC--><g id="link_T_UC_T_VC"><path d="M90.07,306.63 C145.03,312.86 269.43,326.96 344.84,335.51 " fill="none" id="T-to-UC_T_VC" style="stroke:#181818;stroke-width:1.0;"/><polygon fill="#181818" points="350.19,336.12,341.7056,331.1184,345.2227,335.549,340.7921,339.0661,350.19,336.12" style="stroke:#181818;stroke-width:1.0;"/></g><!--MD5=[e568d7de16915eb371c5762f52c2a02a]
link T to UC_T_VS--><g id="link_T_UC_T_VS"><path d="M90.02,326.2 C130.15,358.28 208.11,416.82 283,451.5 C303.41,460.95 326.91,468.39 347.91,473.93 " fill="none" id="T-to-UC_T_VS" style="stroke:#181818;stroke-width:1.0;"/><polygon fill="#181818" points="352.91,475.23,345.2038,469.097,348.0704,473.9737,343.1937,476.8403,352.91,475.23" style="stroke:#181818;stroke-width:1.0;"/></g><!--MD5=[bb5c3fedfabe5d812a982c69214e514d]
link T to UC_T_UR--><g id="link_T_UC_T_UR"><path d="M90.05,297.98 C130.6,289.81 208.74,273.92 275,259.5 C293.4,255.5 313.23,251.05 331.76,246.83 " fill="none" id="T-to-UC_T_UR" style="stroke:#181818;stroke-width:1.0;"/><polygon fill="#181818" points="336.95,245.64,327.2847,243.7475,332.0759,246.7549,329.0685,251.5461,336.95,245.64" style="stroke:#181818;stroke-width:1.0;"/><text fill="#000000" font-family="sans-serif" font-size="13" lengthAdjust="spacing" textLength="126" x="148" y="255.5669">Home Teacher Only</text></g><!--MD5=[54f7339f79d73c6645b3ec9144bd6459]
link T to UC_S_SR--><g id="link_T_UC_S_SR"><path d="M90.29,278.58 C106.08,265.36 126.71,249.61 147,238.5 C208.07,205.07 284.25,181.41 338.23,167.29 " fill="none" id="T-to-UC_S_SR" style="stroke:#181818;stroke-width:1.0;"/><polygon fill="#181818" points="343.38,165.95,333.6637,164.3397,338.5404,167.2063,335.6738,172.083,343.38,165.95" style="stroke:#181818;stroke-width:1.0;"/></g><!--MD5=[1e1614f9b55cde66ddd9bade0381e90f]
link A to UC_A_CC--><g id="link_A_UC_A_CC"><path d="M83.27,668.1 C100.33,674.29 125.16,683.17 147,690.5 C207.1,710.66 222.21,715.53 283,733.5 C307.19,740.65 334.19,748.14 356.76,754.26 " fill="none" id="A-to-UC_A_CC" style="stroke:#181818;stroke-width:1.0;"/><polygon fill="#181818" points="361.8,755.63,354.1665,749.4067,356.9755,754.3168,352.0654,757.1259,361.8,755.63" style="stroke:#181818;stroke-width:1.0;"/></g><!--MD5=[5b888259349be5e2505a273c23961c72]
link A to UC_A_VT--><g id="link_A_UC_A_VT"><path d="M83.15,683.05 C99.36,699.83 123.1,722.51 147,738.5 C211.03,781.33 296.52,808.54 351.55,822.91 " fill="none" id="A-to-UC_A_VT" style="stroke:#181818;stroke-width:1.0;"/><polygon fill="#181818" points="356.45,824.17,348.7312,818.0528,351.6078,822.9236,346.737,825.8003,356.45,824.17" style="stroke:#181818;stroke-width:1.0;"/></g><!--MD5=[022b3b63c9a113c3f2098776deb8f128]
link A to UC_A_RR--><g id="link_A_UC_A_RR"><path d="M83.24,658.27 C129.51,653.29 243.31,641.05 322.72,632.51 " fill="none" id="A-to-UC_A_RR" style="stroke:#181818;stroke-width:1.0;"/><polygon fill="#181818" points="327.89,631.95,318.5175,628.924,322.918,632.4786,319.3633,636.8791,327.89,631.95" style="stroke:#181818;stroke-width:1.0;"/></g><!--MD5=[685bdd03c89f254f051bcb36b401f200]
link A to UC_A_ETL--><g id="link_A_UC_A_ETL"><path d="M83.24,662.73 C130.36,667.8 247.53,680.4 327.07,688.96 " fill="none" id="A-to-UC_A_ETL" style="stroke:#181818;stroke-width:1.0;"/><polygon fill="#181818" points="332.25,689.51,323.7233,684.5809,327.278,688.9814,322.8775,692.536,332.25,689.51" style="stroke:#181818;stroke-width:1.0;"/></g><!--MD5=[d3d27791e35493af286b6966f8bb76b5]
link A to UC_T_VS--><g id="link_A_UC_T_VS"><path d="M83.25,644.53 C121.05,616.12 204.47,556.51 283,521.5 C303.73,512.26 327.51,504.83 348.63,499.24 " fill="none" id="A-to-UC_T_VS" style="stroke:#181818;stroke-width:1.0;"/><polygon fill="#181818" points="353.66,497.93,343.9425,496.3266,348.8213,499.1898,345.9582,504.0686,353.66,497.93" style="stroke:#181818;stroke-width:1.0;"/></g><!--MD5=[95b468f28560406e2af9241ea1005ed7]
link A to UC_T_VC--><g id="link_A_UC_T_VC"><path d="M83.18,634.7 C93.7,621.21 106.45,604.26 117,588.5 C131.63,566.65 131.86,559 147,537.5 C201.32,460.36 203.29,424.98 283,374.5 C301.8,362.6 324.86,355.11 345.94,350.4 " fill="none" id="A-to-UC_T_VC" style="stroke:#181818;stroke-width:1.0;"/><polygon fill="#181818" points="350.97,349.32,341.3276,347.3138,346.0831,350.3774,343.0195,355.1329,350.97,349.32" style="stroke:#181818;stroke-width:1.0;"/></g><!--MD5=[8778f5067d53170b7cc0b292d6a14c2e]
link OA to UC_OA_MT--><g id="link_OA_UC_OA_MT"><path d="M117.01,48.89 C173.97,54.52 263.86,63.4 328.37,69.78 " fill="none" id="OA-to-UC_OA_MT" style="stroke:#181818;stroke-width:1.0;"/><polygon fill="#181818" points="333.35,70.27,324.7816,65.4138,328.3737,69.7838,324.0037,73.3759,333.35,70.27" style="stroke:#181818;stroke-width:1.0;"/></g><!--MD5=[f9c9cbba0df06905fe7608d3a8eef8c7]
@startuml

left to right direction

actor "Normal User" as U
actor Student as S
actor Teacher as T
actor Admin as A
actor "On-Chain Admin" as OA

rectangle "Off-Chain" {
  usecase "Request Registration" as UC_U_R
  usecase "Login" as UC_U_L

  usecase "View Class" as UC_T_VC
  usecase "View Students" as UC_T_VS

  usecase "Create Class" as UC_A_CC
  usecase "View Teacher" as UC_A_VT
  usecase "Review Registration" as UC_A_RR
  usecase "Export teacher list" as UC_A_ETL
}

rectangle "On-Chain" {
  usecase "See student records" as UC_S_SR
  
  usecase "Update student records" as UC_T_UR

  usecase "Manage teachers" as UC_OA_MT
}

U - -> UC_U_R
U - -> UC_U_L

S - -> UC_S_SR : Own Records Only

T - -> UC_T_VC
T - -> UC_T_VS
T - -> UC_T_UR : Home Teacher Only
T - -> UC_S_SR

A - -> UC_A_CC
A - -> UC_A_VT
A - -> UC_A_RR
A - -> UC_A_ETL
A - -> UC_T_VS
A - -> UC_T_VC

OA - -> UC_OA_MT

@enduml

PlantUML version 1.2022.7(Mon Aug 22 17:01:30 UTC 2022)
(GPL source distribution)
Java Runtime: OpenJDK Runtime Environment
JVM: OpenJDK 64-Bit Server VM
Default Encoding: UTF-8
Language: en
Country: null
--></g></svg>