<?xml version="1.0" encoding="UTF-8" standalone="no"?><svg xmlns="http://www.w3.org/2000/svg" xmlns:xlink="http://www.w3.org/1999/xlink" contentStyleType="text/css" height="173px" preserveAspectRatio="none" style="width:457px;height:173px;background:#FFFFFF;" version="1.1" viewBox="0 0 457 173" width="457px" zoomAndPan="magnify"><defs/><g><!--MD5=[a46c1622ac9a4e2815def09cb506a25d]
entity OC--><g id="elem_OC"><rect fill="#F1F1F1" height="62.5938" rx="2.5" ry="2.5" style="stroke:#181818;stroke-width:0.5;" width="158" x="293" y="7"/><rect fill="#F1F1F1" height="10" style="stroke:#181818;stroke-width:0.5;" width="15" x="431" y="12"/><rect fill="#F1F1F1" height="2" style="stroke:#181818;stroke-width:0.5;" width="4" x="429" y="14"/><rect fill="#F1F1F1" height="2" style="stroke:#181818;stroke-width:0.5;" width="4" x="429" y="18"/><text fill="#000000" font-family="sans-serif" font-size="14" lengthAdjust="spacing" textLength="118" x="308" y="39.9951">On-Chain Service</text><text fill="#000000" font-family="sans-serif" font-size="14" lengthAdjust="spacing" textLength="62" x="308" y="56.292">(Motoko)</text></g><!--MD5=[17fcd3c7c2b744a0925bc13c12481009]
entity OFC--><g id="elem_OFC"><rect fill="#F1F1F1" height="62.5938" rx="2.5" ry="2.5" style="stroke:#181818;stroke-width:0.5;" width="157" x="293.5" y="105"/><rect fill="#F1F1F1" height="10" style="stroke:#181818;stroke-width:0.5;" width="15" x="430.5" y="110"/><rect fill="#F1F1F1" height="2" style="stroke:#181818;stroke-width:0.5;" width="4" x="428.5" y="112"/><rect fill="#F1F1F1" height="2" style="stroke:#181818;stroke-width:0.5;" width="4" x="428.5" y="116"/><text fill="#000000" font-family="sans-serif" font-size="14" lengthAdjust="spacing" textLength="117" x="308.5" y="137.9951">Off-Chain Service</text><text fill="#000000" font-family="sans-serif" font-size="14" lengthAdjust="spacing" textLength="70" x="308.5" y="154.292">(Baserow)</text></g><!--MD5=[22029b2902cbfefb11350e8ee6e306b3]
entity F--><g id="elem_F"><rect fill="#F1F1F1" height="62.5938" rx="2.5" ry="2.5" style="stroke:#181818;stroke-width:0.5;" width="135" x="98" y="56"/><rect fill="#F1F1F1" height="10" style="stroke:#181818;stroke-width:0.5;" width="15" x="213" y="61"/><rect fill="#F1F1F1" height="2" style="stroke:#181818;stroke-width:0.5;" width="4" x="211" y="63"/><rect fill="#F1F1F1" height="2" style="stroke:#181818;stroke-width:0.5;" width="4" x="211" y="67"/><text fill="#000000" font-family="sans-serif" font-size="14" lengthAdjust="spacing" textLength="63" x="113" y="88.9951">Frontend</text><text fill="#000000" font-family="sans-serif" font-size="14" lengthAdjust="spacing" textLength="95" x="113" y="105.292">(Node, React)</text></g><!--MD5=[ee0fec323975fbe97ba28321ad4c4bf3]
entity U--><g id="elem_U"><ellipse cx="22" cy="58" fill="#F1F1F1" rx="8" ry="8" style="stroke:#181818;stroke-width:0.5;"/><path d="M22,66 L22,93 M9,74 L35,74 M22,93 L9,108 M22,93 L35,108 " fill="none" style="stroke:#181818;stroke-width:0.5;"/><text fill="#000000" font-family="sans-serif" font-size="14" lengthAdjust="spacing" textLength="32" x="6" y="122.4951">User</text></g><!--MD5=[03610ed7e999769e3a3acc330bee14e4]
link U to F--><g id="link_U_F"><path d="M43.18,87.5 C56.37,87.5 74.47,87.5 92.67,87.5 " fill="none" id="U-F" style="stroke:#181818;stroke-width:1.0;"/><polygon fill="#181818" points="97.8,87.5,88.8,83.5,92.8,87.5,88.8,91.5,97.8,87.5" style="stroke:#181818;stroke-width:1.0;"/><polygon fill="#181818" points="38.14,87.5,47.14,91.5,43.14,87.5,47.14,83.5,38.14,87.5" style="stroke:#181818;stroke-width:1.0;"/></g><!--MD5=[91e78d6bb29ff2fa800b7abf0ea44d38]
link F to OC--><g id="link_F_OC"><path d="M238.12,70.34 C254.1,66.51 271.19,62.42 287.6,58.48 " fill="none" id="F-OC" style="stroke:#181818;stroke-width:1.0;"/><polygon fill="#181818" points="292.67,57.27,282.9842,55.4851,287.8086,58.439,284.8547,63.2634,292.67,57.27" style="stroke:#181818;stroke-width:1.0;"/><polygon fill="#181818" points="233.18,71.52,242.867,73.2984,238.0406,70.3477,240.9913,65.5214,233.18,71.52" style="stroke:#181818;stroke-width:1.0;"/></g><!--MD5=[afb51bd3a62a03641b8b38fda994376b]
link F to OFC--><g id="link_F_OFC"><path d="M238.18,104.67 C254.36,108.55 271.67,112.7 288.27,116.68 " fill="none" id="F-OFC" style="stroke:#181818;stroke-width:1.0;"/><polygon fill="#181818" points="293.39,117.9,285.5787,111.9014,288.5294,116.7277,283.703,119.6784,293.39,117.9" style="stroke:#181818;stroke-width:1.0;"/><polygon fill="#181818" points="233.18,103.48,240.9913,109.4786,238.0406,104.6523,242.867,101.7016,233.18,103.48" style="stroke:#181818;stroke-width:1.0;"/></g><!--MD5=[15f441cf9133df4dca2b8123576fa6d2]
@startuml
left to right direction

component "On-Chain Service\n(Motoko)" as OC
component "Off-Chain Service\n(Baserow)" as OFC
component "Frontend\n(Node, React)" as F
actor "User" as U

U <- -> F
F <- -> OC
F <- -> OFC

' OC <..> OFC
@enduml

@startuml
left to right direction

component "On-Chain Service\n(Motoko)" as OC
component "Off-Chain Service\n(Baserow)" as OFC
component "Frontend\n(Node, React)" as F
actor "User" as U

U <- -> F
F <- -> OC
F <- -> OFC

@enduml

PlantUML version 1.2022.7(Mon Aug 22 17:01:30 UTC 2022)
(GPL source distribution)
Java Runtime: OpenJDK Runtime Environment
JVM: OpenJDK 64-Bit Server VM
Default Encoding: UTF-8
Language: en
Country: null
--></g></svg>